<svg width="397" height="397" viewBox="0 0 397 397" fill="none" xmlns="http://www.w3.org/2000/svg">
<path d="M33.0681 172.618C48.0113 175.736 41.0621 154.416 49.2416 147.86C57.1546 141.517 69.0487 154.066 72.6474 140.294C74.5801 132.899 72.981 124.868 79.8254 119.099C86.8484 113.18 96.7359 113.972 105.286 114.645C106.216 114.772 107.086 114.911 108.027 114.947C114.692 116.145 123.005 118.491 129.626 120.369C129.084 127.333 128.67 135.548 127.267 142.259L125.67 148.403C121.399 162.6 114.461 169.168 99.2437 164.718C92.9392 163.158 84.2444 156.859 77.8185 160.545C68.0704 166.138 73.7183 182.089 64.31 188.203C58.8539 191.748 53.6757 186.111 48.3765 185.896C46.3764 185.814 45.1638 187.365 43.9903 188.765C43.3898 191.612 43.0464 193.874 42.6653 196.765L41.9823 197.085L41.4172 196.834L41.2544 195.658C42.2488 189.602 39.8001 186.192 36.5945 180.943C36.0773 180.374 33.2743 175.987 32.3832 174.838C32.7778 174.203 32.7073 173.51 33.0681 172.618ZM120.511 152.168C121.501 150.879 122.426 149.667 123.366 148.336C124.4 145.635 124.573 143.921 124.922 141.109C124.86 139.435 124.154 138.26 123.454 136.711C121.507 133.651 119.839 131.203 117.691 128.282L115.815 126.008L113.173 123.074C107.321 117.123 103.925 116.289 95.746 117.411C98.6549 121.113 102.196 127.137 104.967 131.273C109.847 138.457 115.033 145.429 120.511 152.168ZM113.598 120.53L116.63 123.147C118.333 124.949 119.114 125.896 120.573 127.902C122.127 129.414 123.471 131.407 124.77 133.173L125.217 133.869L125.788 133.953C126.469 132.844 126.904 127.628 126.484 126.171C125.887 124.102 124.639 123.022 122.781 122.089C121.239 121.314 115.032 120.019 113.598 120.53ZM63.0706 152.547C61.533 150.873 57.0103 147.741 54.6747 148.73C56.5436 153.786 63.7362 171.081 66.8876 174.964C69.1248 174.964 69.1339 168.439 69.0132 166.938C67.5646 161.092 65.9757 157.745 63.0706 152.547ZM59.3334 181.812C55.4795 175.023 53.0391 165.119 48.254 157.623L47.7165 157.886C46.7372 161.674 46.37 165.612 47.2562 169.446C48.4218 173.979 50.0887 177.286 52.0812 181.53C53.7232 183.059 57.4724 184.923 59.4058 183.047L59.3334 181.812ZM83.2161 151.513C80.9031 147.452 79.1582 143.189 77.2809 138.907L76.9552 138.595C76.2157 140.24 76.55 142.515 76.2944 144.257C75.0313 152.877 79.0941 153.26 85.5034 155.794L83.2161 151.513ZM42.3242 186.979C42.3589 183.481 42.3012 181.576 39.3229 179.089C38.4676 178.375 37.8185 178.179 36.7038 178.272L36.5591 178.808L37.6726 180.35C38.6425 181.966 40.9144 186.496 41.7659 187.431C42.2872 187.23 42.1237 187.405 42.3242 186.979ZM70.0725 164.851C70.8049 164.496 70.6047 164.761 70.9244 163.911C72.8883 158.686 70.2775 154.044 64.9116 152.138C66.413 155.923 68.4957 161.231 70.0725 164.851ZM49.2145 155.897C52.0473 160.481 58.5543 176.08 61.032 181.672C61.1575 182.064 61.4482 182.445 61.6822 182.818L62.6076 182.807C65.6353 180.994 66.2302 179.081 64.5312 176.065C64.1042 174.712 63.2873 173.015 62.668 171.692C59.1242 164.114 56.0309 156.489 53.0168 148.688C51.1822 150.075 48.9197 153.54 49.2145 155.897ZM78.2719 137.059C80.3659 141.987 82.1693 145.273 84.7212 149.956C90.3506 158.084 95.7268 159.331 105.199 161.218C98.9625 154.585 92.5562 144.317 87.5695 136.623C85.094 132.804 82.8975 128.693 80.0704 125.115C79.2889 129.301 76.9711 133.514 78.2719 137.059ZM50.7072 181.588C48.6679 177.805 47.283 174.824 46.0538 170.713C45.0914 172.939 45.5026 176.277 46.3252 178.537C46.8687 180.032 49.0999 182.237 50.7072 181.588ZM109.461 160.408C113.821 158.747 114.979 157.978 118.214 154.348C109.516 142.878 101.151 131.441 93.6147 119.159C93.0281 118.203 92.9286 118.141 91.6937 118.29C87.6441 119.286 86.2287 119.597 83.1622 122.602C88.2047 132.445 101.626 152.416 108.681 160.21L109.461 160.408Z" fill="#035236"/>
<path d="M116.63 123.147C118.333 124.949 119.114 125.895 120.573 127.902C119.557 128.393 118.822 128.283 117.691 128.282L115.815 126.008C116.119 125.176 116.391 124.025 116.63 123.147Z" fill="#035236"/>
<path d="M113.599 120.53L116.63 123.147C116.391 124.026 116.119 125.176 115.815 126.008L113.173 123.074L113.599 120.53Z" fill="#035236"/>
<path d="M36.5946 180.943L37.6727 180.35C38.6426 181.966 40.9145 186.496 41.766 187.431C42.2873 187.229 42.1238 187.404 42.3243 186.978C42.9515 188.376 43.3933 187.96 43.9904 188.765C43.3899 191.612 43.0465 193.874 42.6654 196.765L41.9824 197.085L41.4173 196.834L41.2545 195.657C42.2489 189.602 39.8002 186.192 36.5946 180.943Z" fill="#035236"/>
<path d="M120.573 127.902C122.128 129.414 123.471 131.407 124.77 133.173C124.298 133.84 124.097 134.15 123.393 134.573L123.715 135.087L123.454 136.711C121.507 133.651 119.839 131.203 117.691 128.282C118.822 128.283 119.557 128.393 120.573 127.902Z" fill="#035236"/>
<path d="M124.922 141.109L125.525 140.742C126.519 141.243 126.524 141.393 127.267 142.259L125.67 148.403C123.951 148.863 124.674 149.008 123.367 148.336C124.4 145.635 124.573 143.921 124.922 141.109Z" fill="#035236"/>
<path d="M53.0168 148.688C54.1047 148.489 53.7033 148.42 54.6747 148.73C56.5436 153.786 63.7363 171.081 66.8876 174.964C65.7891 175.35 65.3971 175.351 64.5313 176.065C64.1042 174.712 63.2873 173.015 62.668 171.692C59.1243 164.114 56.031 156.489 53.0168 148.688Z" fill="#035236"/>
<path d="M48.254 157.623L49.2145 155.897C52.0473 160.481 58.5543 176.08 61.032 181.672L60.4221 182.566C59.9927 182.288 59.7473 182.124 59.3334 181.812C55.4795 175.023 53.0391 165.119 48.254 157.623Z" fill="#035236"/>
<path d="M78.272 137.059C80.366 141.987 82.1693 145.273 84.7213 149.956C84.1743 150.992 84.2324 150.93 83.2161 151.513C80.9031 147.452 79.1582 143.189 77.281 138.907L78.272 137.059Z" fill="#035236"/>
<path d="M63.0707 152.546C64.0568 151.973 63.6391 152.157 64.9117 152.138C66.4131 155.923 68.4958 161.231 70.0726 164.851C69.713 165.629 69.4834 166.216 69.0134 166.938C67.5647 161.092 65.9759 157.745 63.0707 152.546Z" fill="#035236"/>
<path d="M46.0538 170.713L47.2563 169.446C48.4219 173.979 50.0887 177.286 52.0813 181.53L51.6048 182L50.7073 181.588C48.668 177.805 47.2831 174.824 46.0538 170.713Z" fill="#035236"/>
<path d="M164.01 347.267L164.529 347.105C169.719 345.423 175.101 339.524 179.37 342.053C185.516 345.691 185.341 354.082 191.324 360.245C193.944 360.403 200.025 360.121 201.348 361.836C205.291 366.944 199.369 374.121 209.512 375.67C211.005 375.896 214.379 375.704 216.06 375.655C218.427 367.351 222.246 361.84 231.259 360.136L231.726 360.434C231.153 363.313 227.757 364.267 227.237 366.423C225.216 374.826 235.696 382.855 243.487 380.476C245.406 379.62 246.639 378.885 248.731 378.787L249.319 379.032C248.829 380.344 247.984 380.804 246.691 381.592C238.613 386.975 231.824 387.54 222.495 386.368C214.028 390.808 205.845 395.06 196.146 396.248C182.398 397.933 169.953 393.617 159.178 385.06C152.073 392.606 140.896 386.274 133.412 382.44C122.243 376.725 112.223 371.335 99.9536 368.09C101.052 367.358 100.643 366.503 100.559 365.285C120.466 362.262 145.859 382.301 158.657 377.329C162.531 375.825 164.546 372.153 167.895 369.967C168.017 370.031 168.139 370.099 168.261 370.163C182.256 381.445 189.705 390.243 209.324 382.93C196.413 382.64 184.806 378.87 175.698 369.333C173.689 367.226 170.087 361.659 167.077 361.685C159.804 361.745 160.064 382.044 138.88 366.955C134.644 363.935 126.536 359.069 125.647 353.671C125.429 352.34 125.599 351.108 126.451 350.026C127.744 348.386 130.114 347.659 132.122 347.497C135.58 347.218 139.066 347.282 142.52 346.973C151.822 346.136 154.477 345.092 164.01 347.267ZM149.464 364.09C151.865 363.653 153.492 361.395 153.152 358.979C152.812 356.562 150.627 354.843 148.198 355.081C146.534 355.247 145.094 356.31 144.447 357.848C143.799 359.389 144.048 361.161 145.095 362.465C146.142 363.77 147.82 364.392 149.464 364.09Z" fill="#035236"/>
<path d="M243.487 380.476C245.406 379.62 246.638 378.885 248.731 378.787L249.319 379.032C248.829 380.344 247.984 380.804 246.691 381.592C244.897 381.501 244.761 381.554 243.487 380.476Z" fill="#035236"/>
<path d="M35.2205 267.452C36.1459 265.057 38.6154 258.183 41.2661 256.859C57.443 248.779 42.5802 235.562 63.3571 226.418C64.5814 225.882 65.8107 225.357 67.044 224.843C62.1587 232.408 57.7016 247.314 56.25 256.369C54.0071 270.36 56.3891 284.2 39.027 289.267C37.3748 295.329 36.7657 301.069 39.903 306.877C43.5252 313.581 54.2748 319.531 61.7441 316.332C64.2832 315.245 63.4249 311.863 61.8975 310.262C57.1042 305.236 49.5806 300.617 43.2296 297.99C47.888 295.241 52.6523 292.667 58.3179 294.048C61.8907 294.901 64.9361 297.225 66.7002 300.447C69.7174 305.851 69.1407 312.645 67.4221 318.365C73.8982 319.166 80.6562 319.697 86.7368 322.08L87.0109 321.819C86.4187 320.978 86.0726 320.506 85.3918 319.708L87.1021 317.737C89.2421 320.215 90.1351 320.812 93.0651 322.297C88.4972 312.493 84.0887 304.528 84.3466 293.344C84.4333 289.58 85.0805 282.88 84.1053 279.589C80.2672 266.635 73.3953 270.134 76.2112 253.931C76.9971 255.046 78.4295 257.161 79.4692 257.861C85.9731 262.24 97.437 263.717 95.4226 274.52C94.98 276.895 92.5351 282.729 91.563 285.296C87.574 295.826 89.2413 306.966 95.7188 316.138C98.9916 320.772 104.942 329.754 108.547 334.091C102.704 331.005 95.5247 328.016 89.2255 330.667C74.5243 336.855 77.1965 347.843 92.4918 349.306C89.3412 350.832 87.2337 351.869 83.6428 352.152C75.2337 352.83 65.9381 347.779 62.1467 340.233C59.7523 335.463 62.4712 330.72 67.2314 329.254C73.4145 327.349 79.9015 328.126 86.4028 326.965C81.9669 324.783 73.0971 322.292 68.3434 322.364C53.3007 322.593 39.2189 322.668 33.1623 305.95C31.0559 300.137 31.4665 295.505 32.923 289.292C26.9257 287.987 22.838 285.815 19.4213 280.406C15.0358 273.463 15.5292 265.137 14.0878 257.347C12.0466 246.752 8.26913 234.289 2.59033 225.09C8.90392 227.625 14.7644 229.607 17.7668 236.639C20.1115 242.132 19.7606 248.488 23.3412 253.677C29.6884 256.237 31.2968 257.75 34.0278 264.246C34.4644 265.299 34.862 266.369 35.2205 267.452Z" fill="#035236"/>
<path d="M286.403 307.284C289.313 308.169 291.24 310.25 293.467 312.289C294.851 311.145 296.898 308.958 298.232 307.604C298.255 308.908 298.436 314.689 297.949 315.647C296.521 318.464 290.964 324.102 294.361 327.33C300.565 327.582 307.373 308.965 315.252 314.92C315.877 317.385 313.107 317.698 311.505 320.499L311.757 321.176C318.769 323.668 336.078 308.735 339.569 311.874C338.4 315.989 324.709 324.751 320.755 327.361C323.16 326.881 325.501 326.06 327.65 327.158C328.603 328.381 328.377 327.722 328.513 329.141C326.832 333.769 309.345 341.823 304.312 344.187C308.387 345.009 310.83 345.065 314.946 344.809C318.961 344.556 327.864 342.083 330.413 345.989C330.364 350.075 319.862 350.346 316.36 354.033L316.375 354.553C317.634 355.043 320.781 353.972 322.244 353.577C307.709 368.474 300.822 355.608 294.025 358.639C293.234 358.993 292.827 359.536 292.597 360.354C292.404 361.04 292.465 360.807 292.876 361.512C295.895 362.092 297.147 359.774 303.114 361.621L303.212 362.19C302.201 363.249 299.751 364.256 298.315 364.946C298.609 366.54 299.778 365.594 301.191 367.569L300.935 368.447C299.178 370.185 295.428 371.784 293.094 372.79C286.362 373.928 282.434 370.709 276.082 369.088C274.967 368.806 273.681 368.383 272.645 368.979C272.524 373.872 280.474 371.493 282.856 373.57C282.837 373.631 278.363 378.06 278.589 377.973C275.69 379.047 270.307 376.835 267.469 375.922C268.374 377.954 270.594 384.811 266.67 385.079C265.068 383.348 266.123 380.389 263.575 379.277C261.196 379.835 257.453 385.026 255.437 386.896C251.999 390.085 247.803 391.087 243.382 392.011C240.792 392.554 237.313 394.088 235.484 391.928C236.374 388.792 243.238 388.731 246.145 386.669C249.65 384.178 251.569 381.927 253.951 378.414C250.054 373.178 247.905 368.199 254.37 363.426C252.659 359.898 247.83 357.542 248.844 353.437C250.005 352.359 250.766 352.574 252.568 352.401C254.042 351.315 254.717 345.517 255.263 343.199C256.349 345.457 257.325 348.473 258.177 350.885L259.873 349.638C261.321 348.563 261.513 348.307 263.372 348.326C262.38 345.974 259.598 342.502 262.022 340.346L263.571 340.444C264.823 338.171 263.933 335.972 266.21 332.802L266.783 332.826C268.393 334.793 267.684 336.491 269.071 338.244C270.304 338.021 270.345 337.551 271.427 336.411C273.414 336.786 272.746 343.976 274.854 346.588L275.615 346.603C280.934 341.593 264.676 326.557 278.182 322.765C278.148 320.677 278.246 318.529 278.31 316.437C279.927 318.139 283.561 323.714 286.064 322.116C287.429 318.409 285.254 311.562 286.403 307.284Z" fill="#035236"/>
<path d="M369.767 119.643C373.913 116.135 375.048 116.719 380.6 117.132C374.003 120.158 372.56 123.002 375.873 130.514C376.325 131.544 376.902 131.844 377.931 132.14C379.398 131.335 381.226 126.486 383.755 128.599C386.341 130.761 387.532 137.713 388.95 140.927C387.63 139.674 386.145 138.155 384.686 137.111C384.159 138.395 383.563 139.971 382.99 141.206C388.26 144.337 390.544 148.512 392.029 154.348L389.387 155.267C386.077 152.791 385.342 152.26 381.38 151.061C388.942 173.708 399.595 195.496 396.24 220.147C394.77 230.939 394.653 241.644 380.479 233.398C368.119 226.209 353.237 210.051 339.165 223.613C339.109 223.15 338.766 221.968 338.63 221.456C339.727 219.758 340.424 218.951 342.011 217.646C348.514 212.272 357.568 211.222 365.126 214.967C367.26 216.031 371.821 219.003 373.883 218.995C380.762 218.969 379.771 206.058 379.628 201.992C381.637 200.864 380.219 200.052 382.817 199.278C383.495 202.13 385.101 211.4 386.786 212.807L387.521 212.541C388.625 210.284 388.215 205.333 388.177 202.671C387.939 185.234 383.793 168.078 376.069 152.432C363.306 159.75 367.516 163.609 373.461 174.611C372.545 175.539 371.942 176.289 370.78 176.891C369.804 175.431 368.225 172.923 366.736 172.1C361.195 169.039 356.671 181.251 355.133 184.802C355.944 176.375 353.075 171.419 361.338 166.338C356.845 163.81 354.945 163.948 349.939 163.92C349.185 167.654 348.823 170.296 348.627 174.066C348.389 172.609 348.529 171.598 347.594 170.914L346.429 171.374C346.467 169.97 345.713 165.902 345.453 164.298C337.854 169.015 337.639 172.68 338.219 180.92C336.139 175.452 335.298 170.555 337.669 165.095C335.354 161.842 334.717 156.626 338.664 154.225C342.011 152.191 344.639 153.011 348.144 153.916C350.531 150.119 351.793 148.338 356.468 148.605C355.917 141.302 356.17 140.88 361.858 136.231C355.978 134.601 351.315 132.104 347.85 138.522C347.161 137.702 347.179 137.779 346.147 137.439C351.013 123.381 361.191 126.862 370.822 133.211C368.707 128.072 367.976 125.048 369.767 119.643ZM362.57 146.935C364.022 145.889 365.322 144.888 366.894 144.027L370.716 144.074C368.127 140.951 367.784 140.003 363.6 139.992C362.774 142.639 362.65 144.16 362.57 146.935ZM341.668 161.642C344.284 161.28 345.178 161.532 346.373 158.969C346.045 157.682 346.392 158.212 345.178 157.414C343.858 157.318 343.67 157.283 342.305 157.451C340.078 158.548 339.418 159.011 338.479 161.315L338.589 162.111L339.339 162.504C340.285 162.207 340.764 162.04 341.668 161.642ZM364.033 152.873C364.568 155.569 364.9 157.368 365.782 159.973L366.208 160.169C366.261 159.957 367.471 148.963 367.478 149.075C365.616 150.477 365.33 150.995 364.033 152.873Z" fill="#035236"/>
<path d="M232.005 24.8242C233.664 30.1664 235.699 37.3406 235.141 42.8818C234.742 46.9031 230.848 49.9828 229.566 54.7354C227.659 61.809 228.353 66.5804 227.949 73.6016C227.527 80.8854 223.512 88.6967 220.455 95.2353C222.178 94.2759 223.011 93.6438 224.575 92.4726L226.245 93.4286C226.042 94.279 226.03 93.8515 226.306 94.7102C232.725 92.758 236.178 92.2087 242.779 91.3919C242.583 90.5011 242.398 89.6074 242.228 88.711C239.292 73.4433 250.532 64.3217 263.926 73.7275C259.055 75.7807 246.133 82.5482 246.386 88.6477C246.744 89.2956 247.08 90.0039 247.875 90.1709C259.609 92.8891 272.384 80.9427 268.457 69.1192C263.492 54.1742 274.141 53.0546 285.668 50.7318C289.065 50.0477 289.479 47.7222 291.029 45.0934C295.722 37.1381 305.786 37.4431 313.702 35.1539C308.123 39.0632 304.452 42.4833 300.818 48.3095C296.864 54.6484 297.158 63.2689 290.361 67.2533C285.48 70.114 279.011 69.5761 273.798 68.2454C274.593 75.3559 274.024 79.6792 270.349 85.8179C269.591 86.7949 268.494 88.3016 267.631 89.1249C265.004 91.5751 261.901 93.0965 258.505 94.213C264.027 96.4061 270.062 99.2902 274.228 103.671C273.636 104.802 273.308 105.546 272.482 106.54C271.28 105.983 268.155 104.467 267.017 104.429C256.997 104.098 248.953 108.111 246.213 94.5424C237.686 95.3401 235.424 95.604 227.222 98.5333L227.372 98.9833C230.313 107.375 240.626 99.554 243.525 107.012C245.161 111.225 243.106 116.586 241.275 120.492C234.972 132.414 228.19 140.233 215.988 145.594C217.195 143.986 217.41 143.65 218.182 141.801C233.445 127.64 233.023 95.8305 207.364 105.383C211.514 97.9305 217.945 91.6207 221.311 83.7921C228.76 66.4613 216.757 59.0244 218.657 49.7197C219.962 43.3473 226.279 42.0612 229.024 37.0277C230.893 33.5963 231.281 28.6786 232.005 24.8242Z" fill="#035236"/>
<path d="M240.66 130.589C242.628 120.156 248.127 113.473 259.839 118.917C264.585 121.124 268.034 126.08 269.568 131.096L269.708 131.568L270.19 131.389C272.901 124.783 261.916 112.186 268.162 109.219C268.645 111.036 269.753 115.473 270.549 116.956C271.695 119.093 275.713 122.589 276.376 125.033C277.232 128.178 277.518 132.903 277.91 136.239C281.175 133.616 283.176 132.452 284.025 128.261C283.237 127.854 283.097 127.749 282.389 127.205L282.385 126.485C283.444 125.676 284.443 125.646 285.419 126.52C286.89 129.61 287.082 133.153 285.962 136.386C284.104 141.75 280.353 143.956 278.197 151.54C281.582 147.147 285.385 143.379 288.688 138.99C289.992 137.256 288.812 133.221 289.453 132.425C290.629 133.896 290.678 138.536 290.422 140.35C288.842 151.523 281.552 151.971 278.412 163.002C282.343 157.57 283.783 154.406 290.723 152.767C299.137 154.894 299.321 160.962 297.471 168.415L296.883 167.968C295.816 167.992 295.371 168.104 294.327 168.3C294.432 165.183 294.523 159.006 291.469 157.428C286 157.677 282.92 168.157 279.882 171.941C278.544 173.61 277.824 174.11 276.173 175.412C281.175 176.558 284.42 175.975 288.729 179.858C289.943 180.954 291.492 181.293 293.075 181.772L292.48 182.372C287.613 183.96 276.783 181.429 271.012 180.718C272.954 186.934 271.529 195.548 269.538 201.597C268.091 200.884 267.718 200.752 266.508 199.734C264.465 193.901 274.205 194.734 261.091 180.486C260.246 180.392 257.747 180.107 257.235 179.596C253.65 176.023 252.511 171.088 248.682 167.54C243.314 162.564 239.371 169.23 237.154 173.515C237.06 170.094 236.691 167.412 238.549 164.347C242.258 158.22 248.772 158.761 254.125 162.218C253.465 159.596 253.024 157.578 252.73 154.906C252.372 151.655 253.484 141.843 249.952 140.237C246.13 141.016 243.958 149.56 240.189 152.744C239.439 151.413 239.944 151.935 238.568 151.167C240.238 149.632 241.93 143.005 243.544 139.971C245.131 136.411 250.434 130.576 254.728 133.102C259.07 135.657 258.271 147.199 259.802 150.138C260.959 148.581 261.472 143.35 261.796 141.135C261.26 132.006 259.097 124.854 250.103 120.835C246.831 124.887 245.289 127.615 242.737 132.096C241.919 131.117 241.78 131.142 240.66 130.589ZM260.706 150.888C256.959 158.878 255.847 171.38 260.605 179.107C267.465 183.557 273.56 178.636 276.15 171.959C278.989 164.64 277.462 154.45 277.462 146.752C277.462 142.094 277.975 136.82 276.124 132.529C270.081 134.405 268.125 136.664 264.649 141.561C260.974 146.486 262.463 147.306 260.706 150.888Z" fill="#035236"/>
<path d="M261.796 141.135C262.056 140.45 261.645 139.636 262.512 138.594C263.213 140.13 263.285 140.586 264.649 141.561C260.974 146.486 262.463 147.306 260.706 150.888L259.802 150.138C260.959 148.581 261.472 143.35 261.796 141.135Z" fill="#035236"/>
<path d="M284.025 128.261C283.237 127.854 283.097 127.749 282.389 127.205L282.385 126.485C283.444 125.676 284.443 125.646 285.419 126.52C284.975 128.05 285.423 127.489 284.025 128.261Z" fill="#035236"/>
<path d="M128.981 16.6413C128.459 17.9546 127.801 19.0594 128.184 20.3569L128.762 20.4432C130.195 19.1472 136.224 11.8359 137.197 10.2217L138.025 9.81464C139.947 10.9904 139.905 13.905 138.637 15.5971C137.116 17.627 132.931 19.5012 132.561 22.0652C136.236 25.1057 141.571 17.1599 144.175 15.0302C148.141 11.7857 150.12 4.93724 155.711 4.01257C157.641 5.31382 154.873 8.02863 153.861 9.17834C156.302 7.95626 165.255 2.67816 167.055 5.77257C166.767 8.51075 159.34 17.8181 156.513 18.6033C152.087 19.8318 149.551 22.8142 145.708 25.033C145.26 25.8412 145.032 25.8419 145.403 26.8646C145.647 27.5344 146.615 28.2375 147.34 28.1922C151.886 27.9069 155.919 24.0676 159.75 22.095C160.254 21.8357 162.418 22.1135 163.093 22.1945C166.51 19.8084 169.577 13.2396 172.715 13.4142C174.357 15.2612 173.317 16.2236 172.504 18.4046C172.946 19.3531 172.606 18.952 173.803 19.4111C178.159 19.0892 179.711 14.11 182.182 15.2842C183.142 18.0801 181.894 21.2397 181.06 23.4532C178.235 30.9564 163.95 30.449 162.607 34.899C164.225 38.7952 182.852 36.7314 188.22 45.039L188.184 44.9218L187.804 45.5799L186.217 46.0014L185.933 46.6158C187.389 50.3533 193.322 53.3791 191.83 59.6064L191.234 60.2472C189.034 60.1808 187.732 57.2229 185.469 57.2007C184.249 58.3862 184.332 59.6787 184.23 61.4874C179.755 65.9999 170.207 47.5574 165.991 45.6885C158.048 45.8001 171.491 60.0233 171.791 62.2145C172.454 67.0644 170.418 67.6984 172.245 72.819C170.101 71.1788 166.024 67.8688 163.812 66.7142C162.878 67.0776 162.472 67.8594 161.851 68.6943C153.331 71.549 155.687 36.9394 147.023 37.8305C143.953 40.5129 149.155 49.21 150.212 53.0138C149.212 56.7072 147.331 60.4492 146.502 64.2244C146.174 64.4951 145.845 64.7661 145.517 65.0368L144.519 65.2207C141.627 63.1339 143.44 57.9911 140.711 57.7303C139.449 58.3481 138.387 58.863 137.178 59.5751C137.414 53.9102 139.03 28.7098 130.371 28.2126C127.726 29.7513 129.565 31.8871 128.598 34.1006C126.949 37.8739 125.764 39.6573 125.199 43.8705C113.466 35.3951 127.408 31.8268 124.61 27.9152L124.971 28.7286L124.946 28.225C122.981 27.9559 122.577 28.8636 121.706 30.4732C121.225 29.2688 121.278 29.3389 120.363 28.4233C121.575 25.0288 120.907 23.0103 117.301 21.879L118.244 21.5518L117.672 20.45C119.57 20.6984 121.245 20.5608 123.153 20.4877C124.739 19.4906 126.073 18.0055 127.273 16.5685C128.385 16.9911 127.834 16.9669 128.981 16.6413Z" fill="#035236"/>
<path d="M224.093 183.496C224.658 183.47 225.22 183.449 225.782 183.435C229.596 183.337 230.588 183.834 233.366 186.467C234.934 190.761 233.637 194.812 234.798 197.388C236.781 201.772 243.416 202.991 246.676 198.942C250.227 194.529 250.22 193.221 251.562 188.313C254.8 185.746 261.604 190.453 261.928 194.162C262.429 199.891 253.876 202.596 254.359 208.302C254.536 210.385 256.756 211.682 258.324 212.853C260.499 208.652 262.369 205.186 268.061 205.842C272.513 206.354 277.326 210.771 276.143 215.545C274.352 222.772 262.109 222.279 257.921 224.957C255.38 229.346 262.335 237.153 260.94 243.521C258.433 254.941 239.069 260.092 242.01 243.757C244.29 238.663 248.324 238.69 253.182 239.31C248.214 235.618 238.674 231.11 233.634 237.154C231.508 240.04 227.188 246.732 222.74 243.781C218.311 240.841 220.538 236.476 224.779 235.113C227.361 234.588 239.284 230.536 239.593 227.32C240.637 216.474 228.986 225.376 226.973 226.834C222.189 230.296 214.729 233.384 212.068 226.881C207.564 215.87 222.144 216.431 228.454 213.706C237.169 210.832 231.681 201.675 225.733 199.955C215.423 196.975 212.95 188.688 224.093 183.496Z" fill="#035236"/>
<path d="M291.583 252.188C303.89 250.908 316.812 258.094 325.825 265.853C327.936 267.671 332.275 270.402 331.728 273.424C326.617 279.56 287.855 268.976 310.721 292.327C312.997 294.656 315.357 297.449 317.476 299.957C318.324 301.374 319.051 302.297 318.667 303.932C316.42 305.942 312.73 304.759 309.514 304.802C286.271 305.113 258.999 287.046 274.329 261.748C277.56 256.415 285.088 253.16 291.583 252.188ZM289.917 290.187C277.748 281.929 276.275 265.645 292.894 261.814C297.919 260.656 304.312 262.769 308.866 264.71C311.116 265.674 313.898 267.699 315.858 265.503C315.681 259.884 299.125 256.742 294.327 257.119C274.311 258.315 269.844 280.265 284.65 291.771C287.764 294.191 299.472 301.222 302.899 298.083C303.411 296.76 303.347 297.431 303.034 295.993C300.999 293.986 294.206 292.985 289.917 290.187Z" fill="#035236"/>
<path d="M70.6346 203.771C73.2823 193.657 79.7844 186.116 88.6183 180.368C89.2271 179.971 89.7638 179.819 90.4567 179.654L91.0364 179.903C91.3606 182.878 86.9382 191.149 85.868 194.582C85.0093 197.335 84.6037 199.068 83.9697 201.95C94.9292 198.132 105.365 194.057 117.197 194.165C119.815 194.189 123.549 193.631 125.369 195.864C124.431 201.248 98.2517 210.236 92.819 212.404C90.5562 215.581 89.2534 217.028 86.6853 219.893C86.8896 225.496 87.7909 226.39 90.2192 231.459C94.5353 240.469 98.9136 251.528 100.148 261.44C98.9404 261.648 98.8872 261.752 98.096 262.893C93.1534 253.667 91.459 256.981 87.0633 252.112C84.036 248.759 84.4371 245.6 78.7643 239.853C75.2214 244.119 70.5826 247.575 68.8173 252.762C66.8628 258.505 64.9777 264.219 62.8905 269.921C62.0917 268.437 61.9873 267.977 60.6725 267.028C61.2613 257.821 66.9846 231.354 74.9937 225.993C71.2392 222.18 66.5895 216.134 64.7609 211.13C60.3592 209.182 56.7522 205.708 53.4376 204.419C54.2839 203.761 55.1822 203.704 56.2531 203.487C62.7182 199.845 64.3726 199.228 70.6346 203.771Z" fill="#035236"/>
<path d="M325.497 55.7611C337.571 55.0573 339.957 58.6199 347.262 66.9822C346.245 66.9366 345.227 66.9095 344.209 66.9001C334.495 66.8567 333.832 74.7731 334.088 82.3223C335.569 78.3866 336.787 75.4117 340.764 73.306C345.016 71.0571 351.763 73.1024 354.816 76.5048C360.95 83.3352 366.747 91.8027 370.958 99.9762C372.699 103.365 370.984 114.059 369.22 117.592C361.632 131.463 346.452 118.008 335.117 122.584C330.16 124.585 327.785 130.395 325.836 134.708C326.417 128.349 326.455 122.634 332.139 118.572C338.966 115.519 375.36 107.498 360.169 95.363C352.238 89.028 331.683 89.8297 321.969 90.3865C313.374 90.8792 296.042 90.0672 295.967 78.2479C295.959 77.0586 295.624 76.5169 296.404 75.616C297.603 76.4268 298.104 79.1367 299.54 80.522C313.491 93.9702 341.231 57.1683 307.863 62.2933C313.566 58.552 318.855 56.927 325.497 55.7611Z" fill="#035236"/>
<path d="M22.3284 114.535C21.8308 112.511 19.8771 111.534 20.3204 109.27C21.4267 103.618 27.8579 95.2824 32.3501 92.0428C33.8696 92.7101 30.774 105.814 35.2097 105.873C37.7827 103.953 39.781 98.8819 41.8911 95.806L42.1773 95.3962C42.9523 97.123 43.7394 99.1488 44.4725 100.917C46.0957 99.793 51.629 95.6722 53.2197 95.8214C54.4554 97.8283 53.15 98.206 54.7456 100.184C56.3876 99.5284 58.3139 98.4869 60.0237 99.2483C60.0181 101.143 56.9365 102.709 55.4113 103.753C54.8293 104.99 54.4901 109.252 54.8007 109.039C47.4753 114.071 37.2064 118.458 51.6934 123.983C54.1926 124.936 57.886 126.513 60.6687 126.825C61.3265 126.876 62.158 126.994 62.8712 127.061C59.5416 132.143 59.7821 133.411 64.8634 137.11C64.598 138.365 64.4175 138.568 64.5943 139.799C59.4214 138.056 57.5294 139.534 55.953 144.495C52.1284 140.902 46.9974 137.6 42.506 134.814C31.8144 135.869 37.3941 141.558 36.241 148.944C36.1916 149.261 33.0256 150.896 32.5359 152.241C31.5868 154.847 34.3721 160.611 29.7894 160.942C28.6265 159.098 30.9648 156.214 28.688 154.486C26.7429 154.472 26.4214 155.368 24.6493 155.699C23.3428 154.305 23.5984 147.907 23.5222 145.66C21.7106 145.958 19.7489 146.419 17.938 146.802C18.9207 143.725 22.9353 137.085 21.7924 134.657L20.9657 134.399C17.0153 135.049 11.9143 139.58 8.76526 142.163C10.2606 134.156 11.2777 126.175 17.0775 119.911C17.7793 119.153 20.9793 117.238 21.9842 116.593L22.0623 116.023L22.3284 114.535Z" fill="#035236"/>
<path d="M54.7456 100.184C56.3876 99.5284 58.3138 98.4869 60.0237 99.2483C60.0181 101.143 56.9365 102.709 55.4113 103.753C55.9583 102.449 56.276 102.299 56.129 101.087L54.7456 100.184Z" fill="#035236"/>
<path d="M158.871 308.602C155.19 303.709 155.022 295.21 159.687 290.891L160.321 290.702C161.617 292.081 160.576 293.889 160.085 295.617C158.232 302.141 160.654 306.16 164.317 311.176C166.422 312.828 169.377 316.511 171.721 317.765C175.776 319.932 181.237 318.475 185.711 320.96C190.819 323.796 193.959 327.173 199.32 329.593C203.093 328.442 204.352 328.266 208.163 328.321C214.217 321.065 218.959 323.339 227.312 325.064C227.037 326.553 226.984 327.033 226.411 328.406C225.156 329.242 225.721 329.043 223.946 328.848L223.516 329.352C224.074 331.346 225.243 330.421 225.861 332.502C223.984 334.662 214.827 330.73 213.048 342.298L212.52 345.551C218.099 345.559 223.765 345.378 229.314 345.661C230.286 345.713 231.048 346.92 230.773 348.009C228.19 350.022 224.707 349.166 222.201 349.845C221.134 350.135 216.09 353.019 214.824 353.724C216.599 355.122 221.417 357.354 219.603 359.698C217.975 360.531 216.249 360.388 214.371 360.449C210.73 356.483 207.458 351.892 201.344 354.074C197.254 355.533 197.16 351.172 196.47 349.091C195.392 348.412 191.83 346.305 191.096 345.563C188.1 342.539 186.74 336.841 182.949 334.812C174.748 330.422 166.236 338.532 157.989 337.284C155.167 336.858 150.46 334.27 147.701 332.92C144.827 334.184 139.085 336.423 137.427 332.264C138.497 331.014 139.285 331.311 141.138 330.333C140.091 329.068 138.971 328.153 139.428 326.485C140.896 325.779 142.664 327.024 144.382 326.845C151.699 326.084 150.969 324.176 156.494 329.682C161.355 327.714 164.061 323.161 169.277 319.973C165.287 316.857 160.992 313.334 158.871 308.602Z" fill="#035236"/>
<path d="M158.871 308.602C155.19 303.709 155.022 295.21 159.688 290.891L160.321 290.702C161.617 292.081 160.576 293.889 160.085 295.617C158.232 302.141 160.654 306.16 164.317 311.176C160.557 309.476 158.902 303.174 157.582 299.451L157.133 299.297L157.408 299.091L157.142 299.139L157.205 298.874C155.881 302.847 159.183 306.323 158.871 308.602Z" fill="#035236"/>
<path d="M135.032 237.938C138.618 239.978 143.322 239.87 146.11 242.722C157.168 254.031 143.922 263.485 132.759 263.526C109.621 263.611 94.5394 229.976 111.271 213.568C115.951 208.979 122.881 207.344 127.478 212.971C131.833 218.307 130.136 224.243 129.59 230.362C130.996 234.057 131.819 235.384 135.032 237.938ZM128.336 233.385L128.262 232.93C127.932 230.958 127.924 230.104 126.279 228.933C116.717 227.348 124.579 247.3 133.583 244.028C135.173 242.431 134.744 241.207 133.567 239.446C130.459 237.248 129.373 236.939 128.336 233.385Z" fill="#035236"/>
<path d="M129.59 230.362C130.996 234.057 131.819 235.384 135.032 237.938C134.517 238.515 134.174 238.964 133.567 239.446C130.459 237.248 129.373 236.939 128.336 233.385C128.703 231.242 128.306 231.789 129.59 230.362Z" fill="#035236"/>
<path d="M284.982 210.351C274.639 201.986 286.162 192.653 293.776 187.972C301.089 183.474 300.072 177.699 298.511 170.377C303.148 177.748 308.87 186.969 303.671 196.084C301.168 200.466 284.605 202.219 287.327 207.926C288.314 208.06 288.239 207.963 289.163 207.785C296.317 206.409 301.331 212.37 307.991 213.976C312.477 215.058 316.771 214.896 321.29 214.462C324.509 212.409 328.192 208.03 331.178 205.341C332.931 203.763 334.619 202.534 336.463 201.083L334.303 206.635C336.892 208.727 341.872 211.351 342.588 213.494C342.29 218.692 337.115 216.381 334.325 215.206C329.534 218.727 323.492 228.108 319.307 232.833C317.483 234.896 317.641 245.048 317.984 248.253L316.989 250.357C316.646 249.898 316.887 250.069 316.194 249.966C315.53 251.236 315.417 251.665 314.057 252.257C313.683 251.593 313.352 250.906 313.061 250.201C311.787 247.021 310.894 238.897 311.369 235.312C311.516 234.19 312.579 231.594 313.05 230.426C302.665 230.311 302.036 227.957 294.602 222.029C290.048 226.305 286.848 229.648 281.19 232.213C280.383 235.556 280.131 237.895 279.961 241.373C281.665 242.045 281.571 241.7 282.445 242.944L282.204 243.558C280.911 243.967 280.063 243.85 278.932 243.041L278.201 243.657C279.011 245.299 280.557 244.59 281.725 246.425C280.357 248.162 278.853 247.874 277.123 246.86C274.578 243.697 275.087 238.668 275.347 235.007C275.931 226.826 279.418 227.935 282.649 222.934C282.788 217.84 282.653 214.997 284.982 210.351Z" fill="#035236"/>
<path d="M278.932 243.041C279.06 242.185 279.094 240.77 279.139 239.856L279.373 239.65L279.961 241.373C281.665 242.045 281.571 241.7 282.445 242.944L282.204 243.558C280.911 243.967 280.063 243.85 278.932 243.041Z" fill="#035236"/>
<path d="M354.198 257.268C354.387 256.244 354.285 256.041 354.982 255.329L356.328 255.337C356.223 256.057 355.646 260.704 355.537 260.975C355.024 264.854 353.938 268.712 353.535 272.453C356.185 274.589 357.335 275.289 358.993 278.306C360.633 273.104 361.975 270.244 360.799 264.759C361.67 263.731 361.179 263.931 362.231 263.611L362.665 264.88C363.49 264.92 363.174 264.987 363.63 264.853C364.297 266.677 364.304 267.083 364.542 269.051L365.545 270.709C364.451 272.59 362.171 276.787 361.813 278.867C364.199 277.967 365.669 277.69 367.207 275.723L368.621 277.077C367.411 281.264 366.924 283.287 363.75 286.383C370.562 289.829 371.934 274.818 373.061 271.183C373.706 269.104 374.731 266.26 374.987 264.2C375.202 263.982 376.408 263.892 376.834 263.829C375.481 266.729 373.234 271.044 376.201 273.648C379.273 274.648 381.833 271.213 382.262 268.619L382.854 268.712L383.725 267.933L384.743 268.247C381.667 276.407 376.31 291.855 365.096 288.835C367.32 292.416 369.186 296.111 367.953 300.47C366.766 304.667 360.475 317.601 355.521 316.691C353.286 314.471 354.677 308.3 355.341 305.491C355.665 304.16 355.846 303.806 355.57 302.443C354.847 302.813 354.964 303.097 354.572 304.11C350.749 312.622 348.348 322.331 346.38 331.402L345.954 331.456C344.462 328.377 354.349 300.883 354.798 295.822C354.862 295.109 355.616 291.756 355.793 290.824C351.288 292.457 348.088 294.099 343.874 296.287L342.611 295.134C341.88 294.145 338.89 294.184 337.609 294.126C306.947 292.741 308.463 278.218 338.268 281.036C339.991 281.199 346.791 282.389 348.099 282.104C347.47 281.275 346.527 280.931 345.574 280.442L347.153 279.787L347.458 279.719C347.221 278.923 346.648 276.37 346.821 275.733C347.866 271.934 350.983 266.801 352.834 263.321C353.452 261.636 353.844 259.089 354.198 257.268ZM342 291.715C344.541 290.958 349.758 288.185 350.994 285.898L350.696 285.295C349.43 285.149 349.396 285.163 348.122 285.326C345.129 286.235 340.813 287.492 338.954 290.197L338.89 290.945C339.859 291.814 340.526 291.782 342 291.715ZM354.56 281.088C355.431 280.622 355.978 279.718 355.989 278.731C356 277.743 355.472 276.828 354.613 276.342C353.754 275.856 352.694 275.877 351.857 276.396C350.61 277.165 350.203 278.784 350.934 280.053C351.661 281.321 353.267 281.779 354.56 281.088ZM359.148 300.047C360.23 296.183 360.037 293.731 359.023 289.897C358.775 289.672 358.386 289.285 358.122 289.115C357.433 292.195 356.547 296.363 358.024 299.25C358.394 299.532 358.748 299.848 359.148 300.047ZM361.621 306.704C362.548 304.28 362.623 302.789 362.122 300.256L361.572 299.742C361.123 301.714 359.864 305.281 361.621 306.704Z" fill="#035236"/>
<path d="M361.813 278.867C364.199 277.967 365.669 277.69 367.207 275.723L368.621 277.077C367.41 281.264 366.924 283.287 363.75 286.383C363.136 285.694 362.216 285.355 361.948 284.94C360.132 282.126 362.849 281.784 363.294 279.821L361.813 278.867Z" fill="#035236"/>
<path d="M354.198 257.268C354.387 256.244 354.285 256.041 354.982 255.329L356.328 255.337C356.223 256.057 355.646 260.704 355.537 260.975C355.031 262.121 354.794 262.717 354.406 263.903L353.829 264.164C353.595 263.972 353.018 263.521 352.834 263.321C353.452 261.636 353.844 259.089 354.198 257.268Z" fill="#035236"/>
<path d="M361.571 299.743L362.122 300.256C362.623 302.789 362.548 304.28 361.62 306.704C359.864 305.281 361.123 301.714 361.571 299.743Z" fill="#035236"/>
<path d="M253.205 293.327C255.421 292.246 257.657 287.582 261.178 287.862C273.538 288.846 278.012 304.755 269.146 312.798C266.33 315.354 263.688 315.596 260.137 315.892C259.587 321.243 258.923 325.471 254.306 329.135C250.845 331.882 246.393 333.05 242.032 332.355C239.212 331.927 235.571 330.208 233.592 328.136C229.977 324.54 228.251 319.008 230.569 314.258C232.744 311.183 234.339 310.504 237.686 308.726L238.956 307.8L239.412 307.679C240.411 306.658 242.82 304.076 244.132 303.778C245.187 303.539 244.656 303.795 245.809 303.12L245.862 301.486C245.956 301.057 246.062 300.63 246.182 300.207C246.951 297.533 247.894 296.756 250.227 295.496C250.943 295.077 251.456 294.728 252.138 294.254C252.707 294.084 252.673 293.911 253.205 293.327ZM231.643 315.708C230.015 320.185 231.817 323.859 235.609 326.377C236.084 325.202 234.855 317.016 234.67 314.912C233.709 314.779 232.672 315.336 231.643 315.708ZM247.377 300.879C247.732 302.58 247.423 302.464 248.448 303.46C249.575 303.684 250.604 303.792 251.595 304.348L251.98 304.146C251.528 301.56 253.329 301.092 253.182 298.743C252.447 297.615 251.637 297.53 250.333 297.095C248.459 298.335 248.109 298.702 247.377 300.879Z" fill="#035236"/>
<path d="M230.569 314.258C231.451 315.066 231.251 314.682 231.643 315.708C230.015 320.185 231.817 323.859 235.609 326.377C234.802 327.24 234.61 327.65 233.592 328.136C229.977 324.54 228.251 319.008 230.569 314.258Z" fill="#035236"/>
<path d="M251.98 304.146C255.47 305.734 258.256 310.305 259.576 313.794C259.824 314.455 260.062 315.118 260.292 315.785C256.386 310.549 256.741 309.489 251.595 304.348L251.98 304.146Z" fill="#035236"/>
<path d="M245.862 301.486C245.956 301.057 246.062 300.63 246.182 300.207C246.951 297.533 247.894 296.755 250.227 295.496C250.382 296.354 250.57 296.497 250.333 297.095C248.459 298.335 248.109 298.702 247.377 300.879L246.895 301.723C246.608 301.665 246.111 301.589 245.862 301.486Z" fill="#035236"/>
<path d="M335.422 94.273C337.088 93.8874 339.995 93.6231 341.367 94.7208C342.622 97.2106 338.513 101.78 338.856 105.584C339.135 108.696 341.02 109.345 343.61 111.706C336.858 114.512 330.955 114.099 323.835 114.688C321.068 114.917 316.371 119.269 313.461 116.275L313.755 115.451C314.637 115.004 315.172 114.846 315.791 114.089L315.587 113.497C313.627 112.271 310.28 112.243 307.939 112.092L307.954 113.537C307.988 116.092 308.157 117.65 306.012 119.37C303.581 121.319 297.648 119.131 296.197 117.045C296.672 115.55 297.761 114.496 298.794 113.264C296.457 113.355 294.218 113.679 291.899 113.976L288.526 119.18C286.878 121.558 285.465 124.256 282.679 124.841C278.536 123.38 281.838 114.854 282.796 111.89C281.224 109.202 278.133 104.467 279.886 101.47C283.697 99.0919 288.74 104.236 291.258 106.889C294.368 106.102 303.178 102.743 304.048 99.5481C303.611 98.5209 303.197 97.9264 303.475 96.8762C305.187 95.3605 308.983 95.3673 311.339 95.1645C312.36 95.5429 313.404 96.2116 314.362 96.7635C323.198 93.8157 327.043 95.3036 335.422 94.273Z" fill="#035236"/>
<path d="M167.507 3.13815C181.449 4.20266 192.425 0.955967 206.003 0.0113224C208.585 -0.168484 211.341 1.8207 212.716 4.02663C229.333 -1.25464 256.311 10.5626 267.092 24.0639C267.28 24.2977 267.303 24.8182 267.333 25.1251C265.252 28.642 254.769 24.0462 252.142 22.7427C239.344 16.3997 225.623 22.8355 212.083 24.1883C198.475 25.548 200.82 13.6574 190.662 15.8483C190.589 13.5458 189.867 15.1897 191.226 12.8926C194.777 11.2038 201.201 9.07139 204.947 10.3715C209.113 11.8179 210.466 17.5144 213.591 20.8218C223.648 14.5885 229.951 11.7549 242.051 14.5655L242.597 14.694C237.313 11.1654 234.659 9.62024 227.712 10.4691C223.539 10.9799 218.081 15.7574 215.072 14.3894C213.96 13.8847 211.065 8.22965 208.596 7.54511C200.115 5.19518 189.91 8.52707 181.047 7.33816C175.518 6.59669 172.215 5.51145 167.507 3.13815Z" fill="#035236"/>
<path d="M173.729 100.732C175.799 101.855 178.033 102.907 179.638 104.646C180.807 105.912 180.721 107.365 181.823 108.068C184.49 104.749 179.329 97.6203 180.707 93.0946C181.486 96.3647 181.561 98.6441 183.114 101.711C184.71 104.864 184.099 107.545 182.421 110.574C183.037 112.093 183.323 113.339 184.596 114.281C186.441 114.383 187.384 111.905 188.145 110.37L189.155 110.321C191.092 111.655 192.188 112.599 193.658 114.449C188.764 115.244 182.886 119.743 177.521 122.301C178.082 124.733 178.548 127.205 180.288 129.085C183.883 130.453 183.251 123.595 188.421 124.238C189.031 126.285 184.863 129.34 183.359 130.596C181.823 130.274 179.22 129.312 178.094 129.568C177.185 131.037 177.744 132.073 178.25 133.662L176.906 134.256C176.466 132.787 176.634 132.313 175.656 131.65C174.253 132.413 173.867 132.517 172.273 132.619L171.856 132.942L171.931 133.512C172.227 136.074 171.852 137.314 171.23 139.81C170.742 141.25 170.305 141.229 168.943 142.405L168.222 142.299C169.413 139.903 171.489 136.271 167.789 134.976C164.092 135.429 162.668 139.351 162.853 142.65C162.225 143.192 162.571 143.033 161.847 143.189L161.298 141.038C161.322 139.162 161.628 138.678 162.379 136.932C161.856 135.544 160.951 135.287 159.579 134.269C157.617 138.436 154.617 140.223 153.908 142.805L153.522 142.033L152.718 142.808C152.394 141.305 151.422 141.393 150.057 140.922C148.265 139.723 148.411 138.518 148.151 136.505L148.799 136.002C151.412 145.167 159.053 135.968 157.786 132.15C156.301 127.676 150.224 131.79 148.966 135.06L148.347 133.94C149.143 131.655 151.024 130.913 152.962 129.194C153.504 127.745 153.528 127.812 153.468 126.289C151.166 122.022 146.295 126.564 145.105 130.117L144.742 130.225C144.637 131.13 144.652 131.024 144.702 131.922L144.305 131.821L144.536 131.492L143.953 131.399L143.577 131.028C143.46 128.027 145.977 125.612 147.848 123.516C146.765 123.124 145.674 122.535 144.636 122.017L145.921 121.674C159.628 123.596 160.594 109.289 147.651 114.144L146.832 113.361C149.656 111.864 153.928 111.847 155.061 109.546C154.129 103.715 161.93 110.92 162.166 102.372L163.19 102.007C165.537 110.646 176.362 99.0418 166.43 97.5215L166.238 95.6666C171.077 95.2873 171.814 96.4529 173.729 100.732Z" fill="#035236"/>
<path d="M166.284 120.909C168.345 121.128 168.93 121.13 169.987 122.978C170.213 126.836 167.069 128.68 163.973 129.959C160.049 130.365 158.555 127.975 160.327 124.526C161.678 121.898 163.672 121.604 166.284 120.909Z" fill="#035236"/>
<path d="M164.074 107.357C166.781 108.048 168.758 109.687 166.872 112.582C165.406 114.833 163.736 114.94 161.328 115.43C159.389 115.091 158.295 114.902 157.518 112.888C157.654 109.247 161.096 108.028 164.074 107.357Z" fill="#035236"/>
<path d="M178.079 109.779C183.986 109.998 183.388 117.976 178.496 120.391C177.08 120.467 176.881 120.539 175.528 119.985C175.065 118.909 176.904 116.179 175.88 112.415C176.424 110.841 176.628 111.063 178.079 109.779Z" fill="#035236"/>
<path d="M172.147 102.867C174.893 102.632 176.934 103.305 176.99 106.271C177.047 109.248 175.512 110.775 172.729 110.562C170.897 110.874 170.605 111.235 169.12 110.691C167.666 108.096 169.969 104.456 172.147 102.867Z" fill="#035236"/>
<path d="M171.578 121.345C173.382 121.237 174.808 120.954 176.112 122.51C176.902 123.465 177.264 124.702 177.114 125.932C176.85 128.222 176.088 129.321 174.34 130.639C173.033 130.836 171.255 130.912 170.187 130.041C169.612 128.473 171.598 125.632 171.3 123.712C171.167 122.853 171.358 122.166 171.578 121.345Z" fill="#035236"/>
<path d="M171.766 111.419C178.088 111.623 172.645 118.865 169.273 120.85C162.554 118.802 168.107 113.238 171.766 111.419Z" fill="#035236"/>
<path d="M165.074 116.045C165.6 116.616 165.363 118.984 165.333 119.838C163.326 120.878 160.865 122.507 158.843 122.221C157.975 120.772 157.33 119.565 157.518 117.848C158.838 116.174 162.248 117.119 165.074 116.045Z" fill="#035236"/>
<path d="M166.813 130.359L167.742 130.243C168.81 131.024 169.384 131.445 169.188 132.772C168.149 133.783 165.975 134.256 164.13 135.291L163.715 135.527C162.285 134.838 160.797 133.952 161.359 132.245C163.261 130.833 164.494 130.88 166.813 130.359Z" fill="#035236"/>
<path d="M155.78 122.393C160.133 122.885 158.111 126.712 157.966 129.416L157.945 129.861C153.176 129.22 153.018 125.708 155.78 122.393Z" fill="#035236"/>
<path d="M125.27 286.524C133.667 286.783 139.386 290.875 142.797 298.361C149.729 313.576 142.064 320.116 126.871 313.974C119.677 312.723 115.56 318.506 109.221 313.599C102.217 308.178 107.805 298.54 112.189 293.361C115.715 289.195 119.852 286.904 125.27 286.524Z" fill="#035236"/>
<path d="M313.996 176.586C316.054 174.581 317.46 173.584 320.378 174.086C325 175.725 326.036 178.761 327.208 183.185C330.545 184.143 346.286 187.773 347.881 188.92C350.248 188.472 351.281 185.842 355.416 184.348C363.98 186.72 364.7 192.601 358.903 198.609C358.933 200.883 359.057 204.535 357.485 206.165C351.055 212.841 346.079 206.656 345.091 200.175C340.681 198.984 327.898 194.877 324.001 193.037C313.201 202.4 303.087 193.998 313.088 184.139C312.76 180.86 313.141 179.68 313.996 176.586ZM325.177 185.093C327.563 185.81 346.177 190.706 347.507 190.584L347.85 190.272C345.404 188.668 330.567 185.565 326.21 184.347C325.429 180.351 324.947 179.28 322.063 176.406C322.184 177.356 324.411 181.209 325.177 185.093Z" fill="#035236"/>
<path d="M322.063 176.406C324.947 179.28 325.429 180.351 326.21 184.347C330.567 185.565 345.404 188.668 347.85 190.272L347.507 190.584C346.177 190.706 327.563 185.81 325.177 185.093C324.411 181.208 322.184 177.356 322.063 176.406Z" fill="#035236"/>
<path d="M320.378 174.086C325 175.725 326.036 178.761 327.208 183.184C330.545 184.143 346.286 187.773 347.881 188.92L347.85 190.272C345.404 188.668 330.567 185.565 326.21 184.347C325.429 180.351 324.947 179.28 322.063 176.406C321.486 175.354 321.151 176.013 319.828 174.711L320.378 174.086Z" fill="#035236"/>
<path d="M125.783 160.159C134.13 159.934 133.421 167.113 135.4 167.037C149.233 166.51 151.557 179.327 138.503 183.523C138.931 189.996 137.643 193.338 131.066 194.958C125.755 194.345 123.575 192.442 121.451 187.503C118.3 187.564 116.563 187.863 113.537 186.261C107.468 183.048 107.617 176.873 113.009 173.034C113.421 172.775 118.214 171.238 118.251 171.091C119.699 165.31 117.648 162.034 125.783 160.159ZM130.235 182.585C132.758 181.836 134.25 179.238 133.627 176.681C133.004 174.123 130.484 172.504 127.899 172.999C126.108 173.342 124.652 174.644 124.111 176.385C123.57 178.126 124.032 180.024 125.314 181.322C126.595 182.619 128.487 183.105 130.235 182.585Z" fill="#035236"/>
<path d="M158.802 225.826C168.412 227.654 179.734 227.207 189.46 226.739C191.023 229.53 191.732 231.002 192.813 233.985C196.342 231.396 196.624 230.532 198.716 226.629C197.642 231.928 197.114 235.762 195.716 241.043C194.981 243.552 194.306 245.313 193.337 247.747C186.968 249.2 171.001 248.895 164.448 247.674C161.049 238.612 160.139 235.343 158.802 225.826Z" fill="#035236"/>
<path d="M206.945 102.875C205.513 104.81 203.417 109.217 203.244 111.463L203.756 111.885C207.028 111.222 209.09 108.079 210.59 108.688V109.341C210.59 110.116 210.628 110.448 210.753 111.229C212.897 111.578 215.48 110.486 216.984 111.161C216.961 112.22 216.803 112.341 216.362 113.334L216.675 113.88L219.554 114.43L219.728 115.013C216.69 117.113 216.245 114.396 213.821 119.198C210.881 119.441 208.717 119.26 206.463 121.085C204.736 124.727 210.76 128.168 212.792 131.188C211.797 133.646 210.587 134.053 211.831 136.657L210.93 138.456C208.461 137.159 208.302 137.502 205.803 138.736C202.705 137.694 202.237 128.248 196.538 130.214C192.836 133.829 195.961 136.078 190.587 137.6C189.829 138.32 189.399 138.629 189.347 139.784C188.619 141.383 188.535 141.797 186.795 142.288L186.355 141.821C186.296 140.473 187.092 139.756 187.935 138.618C187.637 138.105 187.856 138.391 187.146 137.879C185.942 137.922 185.893 138.058 184.822 137.635C184.506 135.512 186.389 134.222 186.355 131.73L185.524 131.294L183.359 130.596C184.863 129.34 189.031 126.285 188.421 124.238C183.251 123.595 183.883 130.453 180.288 129.085C178.548 127.205 178.082 124.733 177.521 122.301C182.886 119.743 188.764 115.244 193.658 114.449L194.11 113.377C193.978 107.147 202.041 104.799 206.945 102.875Z" fill="#035236"/>
<path d="M187.935 138.618L188.799 138.808L189.347 139.784C188.619 141.383 188.534 141.797 186.795 142.288L186.355 141.821C186.296 140.473 187.092 139.756 187.935 138.618Z" fill="#035236"/>
<path d="M225.454 284.099L226.701 283.685L227.218 284.018C227.38 285.673 227.64 289.369 227.957 290.837C227.648 291.135 226.95 291.733 226.747 292.108L226.159 292.373C221.967 298.695 223.132 303.478 221.858 310.567C220.075 320.492 209.022 324.517 199.964 322.175C190.57 319.746 185.569 314.201 180.658 306.203C189.341 311.722 203.308 311.438 209.237 302.053C211.627 298.271 213.482 294.377 216.388 290.918C218.902 287.927 222.924 286.733 225.454 284.099Z" fill="#035236"/>
<path d="M99.1013 64.8129C112.429 63.4453 108.697 73.4202 118.704 77.6444C122.768 79.3599 130.206 76.9436 133.62 80.237C135.837 84.857 129.371 87.2273 126.2 88.4542C102.039 96.1411 78.7311 74.4406 99.1013 64.8129Z" fill="#035236"/>
<path d="M109.863 44.4698C114.29 43.9398 118.775 44.7529 122.735 46.8032C141.191 56.3495 143.099 83.0559 132.243 73.9935C126.784 66.5449 123.622 62.5526 113.425 63.8991C100.594 65.5935 96.7747 48.2318 109.863 44.4698Z" fill="#035236"/>
<path d="M217.138 156.711C225.035 156.559 226.253 159.876 226.426 167.002C231.112 168.285 235.047 174.085 231.545 178.501C228.794 181.969 225.88 180.906 222.125 181.11C218.627 183.067 220.829 185.361 214.827 186.985C205.871 186.188 207.918 181.53 206.512 176.293C206.274 175.397 202.411 174.656 201.144 171.753C197.642 163.717 204.374 159.899 211.65 162.868C213.557 159.448 213.648 158.962 217.138 156.711ZM218.842 175.964C220.957 174.889 221.809 172.311 220.757 170.185C219.701 168.06 217.131 167.18 214.997 168.214C212.83 169.262 211.936 171.875 213.003 174.031C214.074 176.186 216.697 177.054 218.842 175.964Z" fill="#035236"/>
<path d="M229.97 280.048C235.601 268.871 237.452 267.699 249.077 265.525C251.709 265.033 255.037 255.485 259.04 254.763C265.06 251.59 269.327 252.144 275.242 250.532C270.209 254.576 265.878 258.362 262.659 264.067C259.006 270.538 259.413 279.414 251.652 282.709C245.251 285.429 236.853 284.345 230.739 281.278L229.97 280.048Z" fill="#035236"/>
<path d="M35.68 215.786C37.2406 217.389 43.8674 229.082 44.3492 231.441C46.8766 243.828 40.7161 249.934 34.5465 259.478C34.3897 255.241 26.8642 247.903 25.7914 242.278C24.7163 236.64 23.8173 233.487 26.7202 227.733C28.9895 223.235 33.6697 220.052 35.68 215.786Z" fill="#035236"/>
<path d="M322.836 153.43C319.786 157.346 315.199 161.916 312.025 165.985C311.437 166.743 309.118 166.906 308.142 166.703C303.276 165.689 303.739 159.248 302.103 155.672C300.441 152.534 296.31 150.226 297.316 146.196C298.782 140.318 303.837 141.947 308.195 142.842C310.63 143.343 316.605 144.13 318.629 142.796C318.226 140.682 318.501 139.597 319.956 138.033C324.608 133.03 329.632 137.957 335.042 137.613C335.656 137.574 335.422 137.567 336.052 137.999C335.117 138.636 332.836 139.091 331.611 139.413C328.573 144.844 327.265 145.008 321.392 145.232C322.417 147.729 322.772 148.591 323.235 151.251L323.333 151.835L323.499 152.5L322.836 153.43Z" fill="#035236"/>
<path d="M160.587 156.394C164.324 156.384 165.67 158.065 168.23 160.517C169.449 160.196 171.151 159.521 172.424 159.721C176.143 160.303 179.018 162.748 178.173 166.777C177.448 170.235 176.011 171.018 173.257 172.79C174.753 178.321 173.769 181.415 168.056 183.103C164.376 182.747 163.065 181.723 160.948 178.719C155.141 179.689 147.397 178.707 150.568 170.658C151.349 168.678 155.214 167.031 155.311 166.624C156.642 161.031 153.442 159.045 160.587 156.394ZM166.075 173.577C168.02 172.928 169.118 170.87 168.572 168.893C168.027 166.916 166.029 165.712 164.026 166.153C162.633 166.459 161.523 167.509 161.14 168.883C160.757 170.257 161.164 171.73 162.197 172.713C163.23 173.696 164.722 174.028 166.075 173.577Z" fill="#035236"/>
<path d="M338.943 274.871C329.27 262.595 330.201 242.044 340.602 230.342C343.357 227.242 347.345 224.82 350.817 222.548C342.072 235.531 350.764 243.451 357.926 254.29L356.78 255.255L356.328 255.337L354.982 255.329C354.285 256.041 354.387 256.244 354.198 257.268C353.927 255.46 353.799 253.077 352.826 251.659L350.979 251.255C350.874 251.009 350.768 250.765 350.655 250.522C349.143 247.302 347.538 246.88 344.416 245.717C338.853 246.716 336.76 249.009 336.945 254.679C339.655 260.786 344.484 261.956 349.599 257.625L351.062 258.847C347.639 265.076 341.97 267.938 340.937 273.65C340.206 274.06 339.599 274.351 338.943 274.871Z" fill="#035236"/>
<path d="M190.745 260.115C193.341 259.919 196.285 259.298 198.174 261.32C197.665 263.233 195.007 266.509 193.854 268.258C188.938 275.728 184.875 287.942 174.868 289.683C170.745 289.206 169.473 288.01 168.338 283.928C167.347 280.364 167.657 276.606 169.623 273.425C173.632 266.943 183.767 261.965 190.745 260.115Z" fill="#035236"/>
<path d="M17.538 173.626L18.6225 173.95C18.8958 174.871 18.8257 174.866 18.6745 175.835C15.8048 182.066 20.4982 188.983 22.9466 194.679C23.7099 195.676 24.5192 196.789 25.3579 197.706L24.7439 199.21C20.4594 198.058 20.3991 198.042 17.6285 201.248L16.5659 200.843C15.7 201.481 16.0837 201.095 15.6996 202.396L14.4926 198.949L15.8274 199.38C15.219 197.77 14.5925 196.168 13.9487 194.572C12.7575 191.692 12.4096 190.126 9.98578 189.138C8.22201 187.501 7.3486 186.878 5.39259 185.517C8.24952 193.293 10.5633 200.304 13.9928 207.961L14.4493 208.077L16.0133 209.186C15.2164 216.764 13.7315 218.838 6.60299 213.881C4.21951 211.913 2.16437 210.491 0.492961 207.882C0.278851 202.821 -1.57689 188.159 3.65334 185.438C7.14995 183.618 11.5128 189.388 14.8002 188.017C16.5802 185.55 16.1165 177.739 17.538 173.626ZM13.0591 209.076C10.9798 204.569 9.3981 199.896 7.63886 195.28C7.00483 193.617 5.37261 188.177 4.57008 187.022C3.59528 187.616 2.90847 188.791 2.68192 189.931C2.32532 191.722 9.29143 208.543 10.5561 211.424C10.6911 211.824 10.5697 211.591 11.0884 212.004C12.1306 211.562 12.9396 210.172 13.0591 209.076ZM9.37548 212.121C7.55405 206.838 2.90508 195.627 1.76593 191.193C1.3558 197.377 1.79006 208.82 7.86654 212.471L8.75237 212.684L9.37548 212.121ZM4.10455 210.229C3.57003 208.678 2.39846 204.436 1.45117 203.639C1.38294 206.4 1.37729 208.757 4.10455 210.229Z" fill="#035236"/>
<path d="M15.8274 199.38C16.2153 196.115 15.3239 194.017 15.9605 191.895C18.0243 190.919 18.7048 194.214 22.4008 195.271L22.9466 194.679C23.7099 195.676 24.5192 196.789 25.358 197.706L24.7439 199.21C20.4595 198.058 20.3991 198.042 17.6285 201.248L16.5659 200.843C15.7001 201.481 16.0838 201.095 15.6997 202.395L14.4927 198.949L15.8274 199.38Z" fill="#035236"/>
<path d="M13.9928 207.96L14.4493 208.077L16.0133 209.186C15.2164 216.764 13.7316 218.838 6.60303 213.881L7.86658 212.471L8.75241 212.684L9.37552 212.121L10.5561 211.424C10.6911 211.823 10.5697 211.591 11.0884 212.004C12.1307 211.562 12.9396 210.172 13.0591 209.075L13.9928 207.96Z" fill="#035236"/>
<path d="M1.45125 203.639C2.39853 204.436 3.5701 208.678 4.10462 210.229C1.37737 208.757 1.38302 206.4 1.45125 203.639Z" fill="#035236"/>
<path d="M196.745 290.676C190.328 295.507 185.743 295.737 178.332 293.034C177.3 292.658 176.849 292.485 176.477 291.503C177.439 290.424 179.72 289.808 181.007 288.925C187.227 284.554 190.767 277.482 194.408 270.802C197.989 263.194 203.655 261.201 205.781 271.159C206.991 276.832 203.79 282.606 200.643 286.953C199.979 287.578 197.163 290.136 196.745 290.676Z" fill="#035236"/>
<path d="M77.4974 49.2293C76.3235 46.6069 76.7231 42.3936 79.4202 40.9982C81.6936 41.0645 82.2319 42.7235 83.8668 42.6221C94.7622 41.9462 88.4822 49.636 85.0353 53.6849C87.9544 51.6931 92.2841 49.955 95.3895 52.6826C96.0861 53.9548 95.9975 53.9654 95.9263 55.3623C95.2214 56.3888 94.8979 56.7812 94.0709 57.7228C93.4787 60.0679 95.5934 62.4702 92.0493 64.4955C87.6947 65.113 84.0319 59.5175 81.8459 56.3956C80.6532 57.8242 80.3245 58.2344 79.4591 59.8696C78.9494 58.6946 78.698 58.652 77.6776 57.877L77.9904 57.3421L77.5136 57.2177C71.5619 61.7905 64.3549 60.8493 68.6126 52.8922C68.0686 51.8612 67.8553 51.3825 67.4263 50.295C68.0117 45.6125 74.0803 46.7101 76.7612 49.8155C77.5984 50.8774 78.9208 53.026 80.2684 52.9186C79.9593 51.3693 78.7066 50.2068 77.4974 49.2293Z" fill="#035236"/>
<path d="M190.081 144.24C196.138 144.428 194.706 146.174 197.145 149.413C197.804 150.286 203.707 150.994 204.31 153.782C205.309 158.413 200.929 160.234 197.789 161.336C197.25 165.19 197.009 166.12 193.409 167.637C193.122 167.637 192.84 167.633 192.553 167.624C187.375 167.46 188.792 165.557 185.973 162.541C184.338 160.792 178.05 160.31 178.474 156.015C178.912 151.572 184.965 151.387 185.506 150.553C187.649 147.243 185.837 147.059 190.081 144.24ZM192.448 159.529C194.197 159.273 195.418 157.655 195.181 155.901C194.943 154.148 193.337 152.911 191.584 153.129C190.429 153.271 189.441 154.023 188.996 155.097C188.55 156.171 188.717 157.401 189.431 158.318C190.145 159.235 191.298 159.698 192.448 159.529Z" fill="#035236"/>
<path d="M56.4087 65.2758C58.1744 64.1317 59.5472 63.1822 61.6246 64.4016C64.3146 67.6913 61.6725 71.5532 59.7369 74.3125C63.699 73.4549 65.4609 73.5382 69.4875 74.026C67.8108 74.1003 65.6592 74.262 64.0228 74.2194L63.9229 74.6615L63.6873 74.2036L63.4476 74.4452L63.2436 74.4829C64.0722 74.8546 65.9046 75.5187 66.4877 75.8719C64.6346 75.9096 61.1466 75.8105 59.9905 77.3945C61.3472 80.2235 70.186 81.6484 65.9121 87.66C63.7393 89.0223 62.2564 86.8937 60.8737 89.2869C60.5277 89.8863 59.9717 90.4042 59.4213 90.8223C51.7722 90.6037 56.3646 80.6449 57.4608 76.7046C55.4965 80.1236 51.981 85.9045 47.5696 85.9886C44.4495 84.9761 45.396 82.014 45.6064 79.8002C44.8446 78.9739 44.1811 78.3169 43.3695 77.5385C42.9021 74.3837 46.6181 73.775 49.0137 73.646C51.4322 73.516 53.4542 75.8071 55.8851 76.8298L56.3921 76.6123C56.0076 75.0562 46.752 67.9058 52.5344 64.1374C54.5243 64.0217 54.487 64.3556 56.4087 65.2758Z" fill="#035236"/>
<path d="M242.432 23.6708C244.595 30.0616 248.21 35.0257 253.921 38.689C260.277 42.7687 261.683 46.087 260.239 53.3072C261.871 52.058 262.979 51.1182 264.902 50.3768L266.063 49.9648C266.278 50.4333 266.568 51.0161 266.756 51.4854C262.606 54.8753 258.825 57.845 255.214 61.8524C247.717 57.2064 247.766 52.5578 248.146 44.5755C247.328 43.6263 246.209 42.4781 245.33 41.5199C240.792 36.5875 242.013 29.9742 242.432 23.6708Z" fill="#035236"/>
<path d="M79.9298 312.061C73.1579 302.319 63.129 288.261 67.6084 275.792C68.518 273.26 70.2233 271.521 72.024 269.609C76.8249 282.206 77.1853 295.901 82.895 310.015C81.7826 311.392 81.6348 311.384 79.9298 312.061Z" fill="#035236"/>
<path d="M146.619 82.0984C145.52 79.3493 144.429 75.026 146.754 72.609C148.165 72.3372 147.482 72.2961 148.875 72.7922C149.615 73.6716 149.937 74.2077 150.979 74.7079C152.613 74.3991 153.822 74.1002 154.987 75.5994C157.98 79.4537 151.633 83.7664 149.007 85.4951C152.58 88.1689 153.933 88.6661 158.173 88.951L156.597 89.3427L156.393 89.7313C158.029 90.0619 158.451 90.0977 160.129 90.1377C159.98 90.1592 158.027 90.4197 158.125 90.3846C156.106 91.1061 151.557 89.4057 150.378 90.0397C152.043 93.2551 154.067 96.2164 150.226 98.8841C147.389 99.1989 148.72 96.7412 143.581 98.0662L142.905 97.6394C140.661 92.1646 143.551 90.3273 147.052 86.7372L147.013 86.3018C145.445 86.4715 141.326 93.1744 137.385 86.9114C137.339 83.5256 139.586 85.402 138.064 80.8141C138.368 79.263 138.307 79.3048 139.19 78.0273C142.362 76.2835 144.935 79.8876 146.619 82.0984Z" fill="#035236"/>
<path d="M181.882 87.2156C182.402 88.3879 186.242 96.8464 186.611 97.457C187.279 97.218 187.525 97.1438 188.247 97.0559C189.313 98.8706 188.278 99.9656 189.241 101.254C191.007 101.357 192.802 101.204 194.008 102.263C193.805 105.001 191.796 104.698 192.176 106.556L193.183 107.355C192.361 108.586 192.018 108.887 190.949 109.942L189.155 110.321L188.146 110.37C187.384 111.905 186.441 114.383 184.596 114.28C183.323 113.339 183.038 112.093 182.421 110.574C184.099 107.545 184.71 104.864 183.114 101.711C181.561 98.644 181.486 96.3646 180.707 93.0945C179.329 97.6202 184.49 104.749 181.823 108.068C180.721 107.364 180.807 105.912 179.638 104.646C178.033 102.907 175.799 101.855 173.729 100.732C171.814 96.4528 171.077 95.2873 166.238 95.6665L165.653 95.0253C167.021 92.8465 169.304 94.5613 170.099 93.4346C171.637 91.252 172.686 91.4473 175.08 92.162C177.792 90.3013 178.899 88.9609 181.882 87.2156Z" fill="#035236"/>
<path d="M146.667 206.761C152.002 206.555 151.395 210.184 156.987 206.98C158.177 206.297 160.833 208.203 161.526 209.545C162.324 211.092 161.302 213.291 161.229 214.896C161.155 216.524 162.722 219.356 162.93 220.891C162.327 223.137 161.646 223.393 159.618 224.573C158.124 224.588 156.741 224.34 155.401 223.75C153.357 222.351 150.884 225.238 149.458 224.986C142.114 223.628 146.047 219.054 145.45 215.176C144.922 211.746 141.33 210.334 146.667 206.761ZM154.371 219.039C155.89 218.536 156.719 216.901 156.227 215.377C155.734 213.854 154.105 213.014 152.578 213.495C151.035 213.981 150.184 215.631 150.681 217.17C151.179 218.709 152.835 219.548 154.371 219.039Z" fill="#035236"/>
<path d="M141.236 187.032C145.768 187.557 155.818 189.928 159.822 192.336C160.634 192.824 162.639 195.072 163.374 195.889C162.142 196.776 162.195 196.736 161.342 198.001C159.679 197.169 158.443 196.766 156.704 196.155C158.806 198.001 165.496 202.928 163.602 205.755C160.743 206.824 157.414 205.218 154.561 204.784C143.49 203.101 142.261 196.662 141.236 187.032Z" fill="#035236"/>
<path d="M189.963 66.0132C190.178 66.4207 190.467 67.4588 190.661 67.9575C192.598 72.942 196.632 74.5794 201.163 76.5713C199.885 82.5475 197.702 89.7247 196.191 95.9123L195.927 96.506L195.32 96.6059C192.391 95.3541 189.912 92.3486 188.429 89.5935C184.609 82.4985 187.628 73.2318 189.963 66.0132Z" fill="#035236"/>
<path d="M219.758 73.7128L220.124 74.32C217.353 86.5959 215.005 96.6391 200.556 98.0851L200.315 97.9384C199.795 96.4913 204.363 80.7282 205.019 77.7571C211.303 78.4175 215.268 78.7575 219.758 73.7128Z" fill="#035236"/>
<path d="M106.788 96.0386C108.004 94.7272 110.301 92.0881 112.308 94.4169C113.949 96.3213 113.335 98.7817 113.171 101.071L113.747 102.433C114.195 102.298 114.886 102.065 115.323 101.983L114.187 103.587C114.896 106.56 120.601 104.963 122.251 108.488C122.47 112.625 118.854 112.159 116.483 115.831C112.798 113.764 112.418 113.737 112.016 109.264C110.811 111.365 110.425 111.977 108.715 113.745L105.979 114.039C102.642 111.407 106.449 110.993 101.12 107.727C102.686 105.338 103.351 104.669 105.83 103.279C107.241 103.538 110.224 104.486 111.068 104.469C109.921 103.192 108.763 103.179 107.057 102.824C106.723 102.656 106.394 102.478 106.072 102.29C102.462 100.174 105.405 98.0451 101.872 96.3051C102.705 95.3703 102.46 95.9082 102.572 94.6096C103.951 95.0604 105.445 95.5154 106.788 96.0386Z" fill="#035236"/>
<path d="M271.819 86.4647C277.405 82.8859 280.843 82.3691 286.324 86.8545C291.79 91.3297 295.654 92.1722 302.488 92.64C294.719 95.8848 291.82 97.8457 283.753 93.7196C279.396 95.0955 275.92 96.1317 271.31 95.0744C265.441 93.7286 266.934 91.9833 269.542 88.6288L271.819 86.4647Z" fill="#035236"/>
<path d="M66.7881 105.352C68.5586 102.176 69.9036 99.7723 74.0689 100.793C74.8183 100.977 75.1029 101.023 75.8659 101.007C73.2423 99.951 69.2571 99.0565 68.2526 96.3639C68.2386 91.9547 78.7797 85.5616 78.2463 96.2889L78.2188 96.7571L78.6188 97.1182L80.0659 98.3573L79.3779 99.9838C80.1352 102.302 84.889 101.31 86.8427 102.787C88.3536 103.929 88.3796 106.256 86.9347 107.351C84.6839 109.059 84.1234 109.488 82.9684 112.158L81.5982 111.409C77.9516 109.418 78.2045 108.385 77.961 104.522C76.9545 107.142 76.509 108.688 74.4361 110.661C70.7808 111.683 71.794 107.485 67.2879 105.56L66.7881 105.352Z" fill="#035236"/>
<path d="M370.264 261.974C377.577 253.115 387.163 246.954 393.756 236.738C390.774 248.035 389.153 257.036 384.743 268.247L383.725 267.933C383.555 266.387 383.936 265.332 383.586 263.213C382.975 261.864 382.915 261.406 381.629 260.675C379.3 260.626 378.312 262.181 376.834 263.829C376.408 263.892 375.202 263.982 374.987 264.2C373.453 266.175 372.296 267.902 371.278 270.211L370.822 268.38C371.693 266.538 372.703 265.363 373.449 263.455C372.477 263.531 371.983 264.204 371.044 264.937C370.856 263.681 370.852 263.121 370.264 261.974Z" fill="#035236"/>
<path d="M229.284 84.874C230.015 81.9228 232.009 76.2071 232.887 72.9694C234.237 67.988 236.804 53.245 238.7 49.4159C239.993 49.7861 241.508 51.7051 242.145 52.8699C247.947 63.5004 237.26 79.0293 231.055 87.1674C230.516 85.7248 230.535 85.8062 229.284 84.874Z" fill="#035236"/>
<path d="M77.6776 57.877C78.698 58.652 78.9494 58.6946 79.4591 59.8695C76.3767 71.7153 82.5399 77.3443 90.6059 84.7775C92.3972 86.4281 94.8987 88.7083 97.2301 89.4743C98.9551 89.9674 99.7304 89.7321 101.176 90.9569L101.094 91.5012L99.3648 92.459L99.352 93.0105C100.565 94.0121 101.044 94.0743 102.572 94.6095C102.46 95.9081 102.705 95.3702 101.872 96.3051C92.8367 93.9913 87.746 91.2603 80.0659 98.3572L78.6188 97.1182C82.1611 94.0422 85.3761 93.1745 89.7589 91.8532C87.1847 90.1943 85.6961 89.2511 83.3681 87.2065C77.9139 82.417 74.2514 76.7239 66.4877 75.8719C65.9046 75.5187 64.0722 74.8545 63.2437 74.4829L63.4476 74.4452L63.6873 74.2036L63.9229 74.6615L64.0228 74.2194C65.6592 74.262 67.8108 74.1003 69.4875 74.026C75.8825 75.8678 80.7822 81.5862 85.8771 86.087C87.8666 88.0053 94.7645 94.0792 97.419 92.185C97.275 91.3455 97.439 91.4654 95.6722 91.0688C92.0923 90.2659 89.6315 87.5454 87.0056 84.9561C79.6698 77.376 73.7667 69.0193 77.6776 57.877Z" fill="#035236"/>
<path d="M174.092 212.747C172.306 214.404 167.352 220.402 165.722 220.444C161.429 213.341 166.535 202.292 171.793 196.909C172.856 198.317 174.226 199.697 175.441 200.997C173.983 202.666 172.597 204.633 173.023 206.891C175.224 205.971 175.241 204.737 176.557 202.769C178.594 201.458 181.496 202.21 183.903 202.562C181.907 207.781 178.338 208.567 174.092 212.747Z" fill="#035236"/>
<path d="M177.219 212.772C180.342 211.622 181.162 208.359 185.015 207.697C188.905 210.117 189.91 214.85 193.722 215.13L193.876 215.688C194.627 214.75 195.075 213.892 195.667 212.857C199.587 219.163 198.43 225.218 193.722 230.556C189.425 219.936 184.252 219.868 177.749 213.316L177.219 212.772Z" fill="#035236"/>
<path d="M345.732 94.9005C349.509 94.6291 360.158 95.8395 358.616 101.474C357.73 104.713 354.296 106.745 351.748 108.496C340.485 116.267 338.939 101.995 345.732 94.9005ZM352.932 102.605L353.407 101.255C352.513 99.8963 350.361 100.321 348.706 99.9879C348.921 101.392 348.887 102.184 349.811 103.252C351.247 103.707 351.62 103.457 352.932 102.605Z" fill="#035236"/>
<path d="M178.626 254.426C184.712 253.865 188.216 255.141 193.394 258.02C185.021 259.922 178.362 262.584 171.799 268.146C168.216 271.365 167.748 273.714 166.467 278.159C165.668 267.97 166.686 257.021 178.626 254.426Z" fill="#035236"/>
<path d="M176.854 172.138C182.717 178.588 187.645 183.966 183.477 193.031C183.218 194.334 183.058 196.032 182.25 197C181.556 196.056 181.611 194.96 181.51 193.684C180.705 191.134 179.437 189.722 177.83 187.622C178.698 190.378 181.628 197.907 179.945 200.059L179.055 199.919C177.845 199.093 177.808 198.853 177.064 197.627C171.435 188.351 174.371 181.635 176.854 172.138Z" fill="#035236"/>
<path d="M181.51 193.684C181.678 193.35 181.874 193.193 182.136 192.902L183.477 193.031C183.218 194.334 183.058 196.032 182.25 197C181.556 196.056 181.611 194.961 181.51 193.684Z" fill="#035236"/>
<path d="M243.125 171.128C247.984 174.198 250.427 187.495 247.867 192.594C246.145 196.027 245.289 196.871 241.847 198.261C240.408 198.249 238.293 197.833 237.286 196.78C233.864 193.214 240.023 186.989 241.09 183.765C242.387 179.842 242.99 175.196 243.125 171.128Z" fill="#035236"/>
<path d="M92.3368 353.554C102.338 352.698 108.741 356.072 114.643 364.056C111.639 362.725 111.052 362.609 107.898 362.205C106.065 362.024 102.077 361.851 100.287 362.186C96.9764 362.805 93.1318 364.991 89.5598 364.079C88.6069 363.837 88 363.313 87.6079 362.416C87.0278 361.086 87.3829 358.865 87.8334 357.565C88.5028 355.631 90.6639 354.429 92.3368 353.554Z" fill="#035236"/>
<path d="M137.315 268.624L137.657 268.684C146.522 270.329 145.468 282.175 137.698 286.468C135.381 286.43 132.994 285.651 132.061 283.461C129.353 277.105 131.944 271.589 137.315 268.624Z" fill="#035236"/>
<path d="M118.778 267.859C128.687 267.572 127.557 281.134 120.182 285.231C110.275 285.016 111.309 272.167 118.778 267.859Z" fill="#035236"/>
<path d="M91.9859 333.98C101.66 332.704 105.016 339.55 108.588 346.882C106.816 345.857 105.439 345.295 103.575 344.488C97.5373 342.807 96.1015 344.79 90.2949 344.304C89.2115 344.187 87.2891 343.493 86.8846 342.351C85.2814 337.823 88.8715 335.462 91.9859 333.98Z" fill="#035236"/>
<path d="M122.152 321.049C136.283 320.347 124.922 332.755 128.912 339.611C129.371 340.398 129.324 340.248 129.358 341.179L128.417 341.16C121.238 337.927 112.708 326.749 122.152 321.049Z" fill="#035236"/>
<path d="M240.558 238.914C240.702 240.701 238.44 243.847 238.67 245.551C239.597 252.361 243.921 261.516 231.685 258.643C223.829 251.967 233.144 241.632 240.558 238.914Z" fill="#035236"/>
<path d="M239.322 350.848C240.215 350.84 241.109 350.919 241.991 351.081C249.982 352.484 247.234 361.006 243.005 364.866C241.263 366.457 240.227 367.203 238.161 368.383C236.14 369.198 234.538 369.382 232.409 369.755C235.526 365.315 236.423 363.016 235.794 357.493C235.371 353.799 236.076 352.495 239.322 350.848Z" fill="#035236"/>
<path d="M212.543 198.555C219.162 198.287 218.774 204.285 224.379 207.155C225.525 207.741 228.296 208.351 229.645 208.677C227.478 209.824 226.351 210.468 224.018 211.238C221.39 211.682 219.068 211.985 216.396 211.633C208.521 210.597 203.9 203.199 212.543 198.555Z" fill="#035236"/>
<path d="M104.618 276.887C113.023 276.776 115.147 289.789 108.327 294.21C100.678 295.018 97.5201 282.57 104.618 276.887Z" fill="#035236"/>
<path d="M204.005 264.557C207.805 266.177 209.976 267.08 211.906 271.206C216.181 280.343 205.494 294.399 195.629 293.396L195.475 292.917C196.21 292.261 196.262 292.156 197.129 291.72C199.01 290.021 200.164 288.801 201.875 286.924C207.556 279.284 209.603 272.936 204.005 264.557Z" fill="#035236"/>
<path d="M147.68 282.244C155.596 283.607 156.301 294.816 149.253 297.77C141.313 296.862 140.722 285.394 147.68 282.244Z" fill="#035236"/>
<path d="M210.263 252.202C211.555 252.173 212.845 252.301 214.104 252.584C216.2 253.053 218.141 253.509 219.245 255.296C219.226 261.551 213.742 258.042 209.663 258.748C207.903 259.054 207.058 259.394 205.453 260.141L204.97 260.37C203.73 260.943 202.124 262.393 201.257 262.312C199.519 258.63 198.611 259.781 197.303 257.827C199.075 254.99 206.889 252.583 210.263 252.202Z" fill="#035236"/>
<path d="M196.632 172.453L197.001 172.946C196.492 177.292 196.04 180.881 194.868 185.083C192.825 192.407 192.798 192.501 186.346 196.286C185.712 195.339 185.784 195.017 185.754 193.864C185.531 185.318 190.805 178.26 196.632 172.453Z" fill="#035236"/>
<path d="M153.119 106.515C150.382 100.114 159.666 95.4547 162.166 102.372C161.93 110.92 154.129 103.714 155.061 109.546C153.928 111.847 149.656 111.864 146.832 113.361C141.906 108.928 150.262 107.135 153.119 106.515Z" fill="#035236"/>
<path d="M323.333 151.835C327.28 147.317 330.627 146.357 335.822 149.752L341.763 147.507C338.675 149.988 336.828 152.026 334.043 154.719C330.077 158.552 325.376 158.502 322.836 153.43L323.499 152.5L323.333 151.835Z" fill="#035236"/>
<path d="M264.902 50.3768C265.791 47.8942 262.915 46.4779 262.712 44.5374C261.913 37.0364 263.07 35.4396 259.308 28.567C263.613 33.6744 268.947 35.8034 268.777 42.1305C268.743 43.4314 268.117 48.0355 268.196 48.3929L269.139 48.0758L270.194 49.0767L266.756 51.4854C266.568 51.0161 266.278 50.4333 266.063 49.9648L264.902 50.3768Z" fill="#035236"/>
<path d="M320.827 128.566L320.996 129.077C320.404 130.212 318.998 131.035 317.909 131.823C317.954 138.168 313.702 141.536 307.531 139.892C301.47 132.136 316.842 130.764 320.446 128.78L320.827 128.566Z" fill="#035236"/>
<path d="M147.651 114.144C160.594 109.289 159.628 123.596 145.921 121.674C145.02 118.133 144.995 116.682 147.651 114.144Z" fill="#035236"/>
<path d="M198.068 188.683C200.597 186.915 203.029 184.615 205.298 183.12C207.375 192.195 205.027 196.237 198.931 202.673C199.712 198.504 200.692 194.655 200.258 190.421C199.772 189.952 200.013 190.024 199.666 189.958C199.078 189.167 198.977 189.246 198.068 188.683Z" fill="#035236"/>
<path d="M320.593 160.78C327.714 160.219 324.204 164.077 332.346 164.177L332.569 164.462C331.031 165.51 329.873 165.798 328.128 166.399C326.176 167.755 324.732 168.677 322.233 168.538C319.809 168.404 316.175 166.937 317.042 163.837C317.506 162.179 319.179 161.496 320.593 160.78Z" fill="#035236"/>
<path d="M192.791 199.687C191.943 198.604 191.046 197.779 190.935 196.47C192.595 195.834 194.819 198.694 195.607 199.966C196.696 201.826 198.159 205.766 199.146 207.996C195.863 206.797 187.158 203.046 184.884 200.615C184.369 198.449 185.226 197.631 187.346 197.211C189.448 197.771 190.41 201.005 192.365 200.78L192.791 199.687Z" fill="#035236"/>
<path d="M192.791 199.687C191.943 198.604 191.046 197.779 190.935 196.47C192.595 195.834 194.819 198.694 195.606 199.966C193.737 200.192 193.986 200.481 192.791 199.687Z" fill="#035236"/>
<path d="M149.107 144.225C150.478 144.269 152.606 145.035 152.866 146.399C153.706 150.782 149.693 152.64 146.824 153.597C144.872 153.343 143.644 153.371 142.536 151.523C141.97 147.883 146.338 145.523 149.107 144.225Z" fill="#035236"/>
<path d="M153.908 142.805C154.617 140.223 157.617 138.436 159.579 134.269C160.951 135.287 161.856 135.544 162.379 136.932C161.628 138.678 161.322 139.162 161.299 141.038C160.9 143.838 160.525 148.472 156.573 147.942C154.919 146.83 154.183 144.714 153.908 142.805Z" fill="#035236"/>
<path d="M133.698 147.841C136.448 148.855 138.994 148.095 140.643 149.046C142.63 151.505 141.181 154.159 138.994 155.823C138.626 155.973 138.252 156.109 137.872 156.229C131.197 158.373 131.159 152.333 133.698 147.841Z" fill="#035236"/>
<path d="M196.255 31.5099C200.171 32.4361 209.188 36.238 204.148 41.2881C200.933 41.2353 195.493 38.1439 195.075 34.5545C194.928 33.2816 195.584 32.5009 196.255 31.5099Z" fill="#035236"/>
<path d="M143.577 131.028C142.719 131.32 139.53 131.418 138.462 131.007C134.864 127.694 138.966 121.734 144.637 122.017C145.674 122.535 146.765 123.124 147.848 123.516C145.977 125.612 143.46 128.027 143.577 131.028Z" fill="#035236"/>
<path d="M148.966 135.06C150.224 131.79 156.301 127.676 157.787 132.15C159.053 135.968 151.412 145.167 148.799 136.002L148.966 135.06Z" fill="#035236"/>
<path d="M113.171 101.071C117.937 97.9396 123.448 96.0269 129.144 97.402C137.22 99.3513 143.808 101.871 146.479 110.364C139.216 101.976 125.582 93.5858 115.323 101.983C114.886 102.065 114.195 102.298 113.747 102.433L113.171 101.071Z" fill="#035236"/>
<path d="M158.173 88.9511L158.665 88.8181C165.421 86.9374 169.529 81.4905 173.637 75.9666C174.679 74.5655 175.445 70.7416 176.889 69.3345L177.341 69.5184C177.464 77.7545 167.956 88.4272 160.129 90.1378C158.451 90.0978 158.029 90.062 156.392 89.7314L156.597 89.3428L158.173 88.9511Z" fill="#035236"/>
<path d="M196.345 210.702C205.023 211.88 204.751 217.686 205.027 224.713C204.382 224.765 201.272 222.715 200.42 222.222C199.297 216.854 198.897 215.507 196.345 210.702Z" fill="#035236"/>
<path d="M183.903 202.563L184.209 202.043C184.313 203.267 184.396 204.493 184.456 205.72C186.452 207.134 189.208 206.605 191.551 207.128C190.843 208.172 191.027 207.853 189.619 208.408L188.238 208.183C189.408 210.509 192.305 211.065 193.722 215.13C189.91 214.85 188.905 210.117 185.015 207.697C181.162 208.359 180.342 211.622 177.219 212.772C176.126 212.507 176.621 213.692 174.092 212.747C178.338 208.567 181.907 207.781 183.903 202.563Z" fill="#035236"/>
<path d="M373.461 174.611C374.697 176.972 375.345 178.542 376.325 181.025C378.033 184.767 379.477 188.625 380.649 192.569C379.842 193.248 379.251 193.228 378.335 193.642C377.422 191.004 376.201 188.082 375.206 185.404C373.766 182.547 372.292 179.71 370.78 176.891C371.941 176.289 372.545 175.539 373.461 174.611Z" fill="#035236"/>
<path d="M373.461 174.611C374.697 176.972 375.345 178.542 376.325 181.025L374.965 180.486L374.46 181.052C374.591 182.953 375.119 183.855 375.206 185.404C373.766 182.547 372.292 179.71 370.78 176.891C371.941 176.289 372.545 175.539 373.461 174.611Z" fill="#035236"/>
<path d="M269.139 48.0758C271.808 45.4775 272.147 45.3588 274.292 42.3179L275 43.9433C279.999 42.8588 281.16 44.3606 286.32 46.3811L286.603 46.8839C282.626 48.9149 274.846 45.891 270.194 49.0766L269.139 48.0758Z" fill="#035236"/>
<path d="M19.5834 174.792C22.7427 180.916 30.7231 197.667 34.6476 202.263C34.1659 203.272 34.1493 203.601 33.2069 204.169C30.1653 203.009 27.5025 201.006 24.7439 199.21L25.358 197.706C27.409 199.324 30.5366 201.27 32.776 202.756C28.0615 193.611 23.2795 185.625 19.067 175.981L19.5834 174.792Z" fill="#035236"/>
<path d="M173.916 291.511C177.204 293.233 183.754 297.429 179.106 301.279L178.347 301.285C177.939 300.547 177.853 300.094 177.366 299.438C176.751 300.833 176.25 301.953 175.044 302.896L174.297 302.804C173.679 300.496 175.446 297.765 174.567 296.678L174.093 297.033L173.599 295.982L172.557 295.816C172.921 294.181 173.024 294.916 172.464 293.515C172.59 292.566 173.087 292.379 173.916 291.511Z" fill="#035236"/>
<path d="M145.105 130.117C146.295 126.564 151.166 122.022 153.468 126.289C153.528 127.812 153.504 127.745 152.962 129.194C151.024 130.913 149.143 131.655 148.347 133.941L147.994 134.406L147.228 134.508C145.622 133.451 145.156 131.941 145.105 130.117Z" fill="#035236"/>
<path d="M340.519 254.498C338.762 253.389 338.129 251.128 339.06 249.268C339.987 247.408 342.177 246.556 344.119 247.297C345.559 247.847 346.561 249.166 346.704 250.7C346.848 252.234 346.105 253.717 344.793 254.523C343.482 255.329 341.823 255.319 340.519 254.498Z" fill="#035236"/>
<path d="M138.082 140.955C140.582 140.567 142.458 140.302 143.898 142.747C143.997 145.534 142.442 146.019 140.1 146.825C137.511 147.015 135.833 147.359 134.024 145.229C133.402 142.306 135.844 141.775 138.082 140.955Z" fill="#035236"/>
<path d="M195.678 20.1032C202.64 19.7847 201.291 27.375 200.952 32.0078C196.458 28.4904 193.684 25.9215 195.678 20.1032Z" fill="#035236"/>
<path d="M175.411 213.54L176.106 213.747C176.71 215.615 176.187 218.88 175.861 220.823C175.397 223.59 172.355 224.985 169.962 226.476L169.492 226.224C168.409 222.789 172.666 215.696 175.411 213.54Z" fill="#035236"/>
<path d="M162.853 142.65C162.668 139.351 164.092 135.429 167.789 134.976C171.489 136.271 169.413 139.903 168.222 142.299C167.028 143.361 166.087 144.446 164.607 144.643C163.458 144.052 163.471 143.795 162.853 142.65Z" fill="#035236"/>
<path d="M139.821 132.974C144.324 132.697 146.694 135.17 144.231 139.301C143.143 140.005 143.738 139.869 142.359 139.586C139.5 138.786 139.032 139.684 137.143 139.183C135.109 137.153 137.998 134.12 139.821 132.974Z" fill="#035236"/>
<path d="M181.454 27.0309C186.697 27.6276 188.498 29.6108 192.508 32.8156L192.516 33.3588L191.792 33.1077C188.196 32.7327 181.538 34.4067 180.013 29.8C180.239 28.2631 180.352 28.2205 181.454 27.0309Z" fill="#035236"/>
<path d="M202.591 42.2572C205.486 43.618 210.353 48.2591 207.775 51.635C205.875 52.2849 204.642 53.0592 202.837 51.9377C201.404 49.8668 202.471 45.352 202.591 42.2572Z" fill="#035236"/>
<path d="M184.523 20.7267C190.358 22.1376 193.767 24.0118 195.346 30.0555C190.722 28.5428 183.745 26.5521 184.523 20.7267Z" fill="#035236"/>
<path d="M178.25 133.662C177.744 132.073 177.185 131.037 178.094 129.568C179.22 129.311 181.823 130.274 183.359 130.596L185.524 131.294L184.178 131.417C182.872 134.449 185.048 138.445 179.324 138.693C177.984 137.541 178.382 135.386 178.25 133.662Z" fill="#035236"/>
<path d="M197.533 40.0697C199.553 41.5956 200.609 46.5616 199.553 49.037C198.592 50.0107 198.275 49.9617 196.937 50.2033C190.804 46.6057 193.827 44.0575 197.533 40.0697Z" fill="#035236"/>
<path d="M171.23 139.81C171.852 137.314 172.227 136.074 171.931 133.511L171.856 132.942L172.273 132.618C173.867 132.517 174.253 132.413 175.656 131.65C176.634 132.313 176.466 132.787 176.906 134.256C176.892 136.725 176.846 141.802 173.422 141.838C172.06 141.043 172.114 141.107 171.23 139.81Z" fill="#035236"/>
<path d="M227.617 282.426L227.938 281.382L228.918 281.293L230.901 283.222C238.413 286.948 247.423 286.697 253.205 293.327C252.674 293.911 252.707 294.084 252.138 294.255C245.176 287.015 231.839 287.648 227.617 282.426Z" fill="#035236"/>
<path d="M166.43 97.5215C176.362 99.0417 165.537 110.646 163.191 102.007C164.608 99.8857 163.553 99.6102 166.43 97.5215Z" fill="#035236"/>
<path d="M185.894 35.3517C189.9 35.0893 191.788 36.0951 195.55 37.4698C193.963 38.2335 192.101 38.9633 190.46 39.6531C188.179 40.6615 183.992 41.3204 183.52 37.9787C184.041 36.5493 184.614 36.3224 185.894 35.3517Z" fill="#035236"/>
<path d="M207.564 41.755C212.735 43.9206 217.564 44.8573 216.637 51.3903C215.819 51.5053 215.031 51.6138 214.232 51.3085C212.245 50.5501 208.408 43.6673 207.564 41.755Z" fill="#035236"/>
<path d="M204.687 25.5302C207.33 25.4228 209.049 24.9169 210.259 27.6008C210.217 29.5644 208.924 31.0809 207.609 32.4172C206.617 33.2208 206.071 33.6577 204.823 33.4753C203.315 31.9162 203.907 27.3818 204.687 25.5302Z" fill="#035236"/>
<path d="M208.129 38.7356C212.611 39.0044 220.327 38.042 220.945 44.1177C220.516 44.3639 219.675 44.8234 219.204 44.7902C216.599 44.6066 209.678 40.4236 208.129 38.7356Z" fill="#035236"/>
<path d="M226.747 292.108C226.95 291.733 227.648 291.135 227.957 290.837C230.565 299.498 234.896 301.391 238.956 307.8L237.686 308.726C232.258 303.79 228.873 299.038 226.747 292.108Z" fill="#035236"/>
<path d="M342.611 295.134L343.874 296.287C337.096 300.32 331.242 305.183 325.441 310.449C323.171 312.51 320.582 315.08 317.905 316.468C323.823 309.167 334.672 300.721 342.611 295.134Z" fill="#035236"/>
<path d="M153.591 225.744C155.17 225.579 155.777 225.332 156.59 226.64L156.379 227.292C154.444 229.298 150.744 230.13 148.058 230.915C146.874 231.35 146.177 231.773 144.978 231.464L144.666 230.881C145.693 227.598 150.629 226.339 153.591 225.744Z" fill="#035236"/>
<path d="M212.479 32.4156C214.695 32.733 219.332 34.1824 217.232 37.166C216.064 37.716 215.234 37.373 213.934 37.1151C210.67 36.3914 209.738 36.3435 206.523 36.4502C208.574 34.4742 209.671 33.1549 212.479 32.4156Z" fill="#035236"/>
<path d="M17.5381 173.626C18.7583 168.507 23.4623 168.542 27.4505 170.38C26.8168 171.258 26.8741 171.22 26.6457 172.293C26.9853 173.781 27.0177 173.811 27.7177 175.184L26.4451 175.62C25.5691 174.209 25.1126 172.671 23.7782 172.073C21.8158 171.988 19.9355 172.687 19.5834 174.792L19.067 175.981L18.6746 175.835C18.8258 174.866 18.8959 174.871 18.6226 173.95L17.5381 173.626Z" fill="#035236"/>
<path d="M26.4451 175.62L27.7177 175.184C30.832 181.503 35.2918 191.013 39.1412 196.64L38.3357 198.135C34.9099 192.684 28.9431 181.544 26.4451 175.62Z" fill="#035236"/>
<path d="M41.2545 195.657L41.4173 196.834L41.9824 197.085L42.6654 196.765C41.7423 202.739 39.2114 205.225 33.2069 204.169C34.1493 203.601 34.1659 203.272 34.6476 202.263C36.3982 201.869 39.0074 200.234 38.3357 198.135L39.1413 196.64L39.7761 197.533L40.3709 197.489L41.2545 195.657Z" fill="#035236"/>
<path d="M160.692 182.837L161.699 183.302C164.013 186.819 166.26 193.052 165.845 197.261C164.408 194.02 163.104 192.969 160.553 190.639C160.849 187.419 161.145 186.079 160.692 182.837Z" fill="#035236"/>
<path d="M98.7959 31.2678C102.182 29.2722 104.551 27.2657 107.376 24.5607C108.541 25.4646 108.66 25.3847 110.077 25.6576C106.316 29.4283 102.486 32.8502 97.1927 34.2744C98.1434 33.3433 98.2565 33.2668 99.0217 32.1107L98.7959 31.2678Z" fill="#035236"/>
<path d="M165.326 299.447C166.528 297.146 169.536 294.282 169.409 292.582C167.513 291.321 166.174 292.768 164.905 291.111C166.872 288.244 171.59 290.436 173.916 291.511C173.087 292.379 172.59 292.566 172.464 293.515C170.359 296.111 168.155 297.766 165.326 299.447Z" fill="#035236"/>
<path d="M279.697 25.8137C282.189 25.9423 284.579 26.5299 285.74 28.9436C285.657 30.4288 285.785 29.8901 284.447 31.2275C282.178 30.8739 279.196 30.3869 278.359 27.9461C278.604 26.5808 278.54 26.9974 279.697 25.8137Z" fill="#035236"/>
<path d="M8.91833 111.563C10.0194 110.36 10.8042 109.152 12.1895 108.708C13.4851 109.494 13.2616 109.685 14.1063 111.261C16.8573 112.326 19.5982 113.417 22.3284 114.535L22.0623 116.023C19.4542 114.746 12.1763 112.682 8.91833 111.563Z" fill="#035236"/>
<path d="M151.551 142.965C148.405 142.497 147.824 143.898 145.683 143.56C144.134 141.157 145.987 137.993 148.151 136.505C148.411 138.518 148.265 139.723 150.057 140.922C151.422 141.393 152.394 141.305 152.718 142.808L151.551 142.965Z" fill="#035236"/>
<path d="M150.057 140.922C151.422 141.393 152.394 141.305 152.718 142.808L151.551 142.965C150.95 142.647 149.681 142.259 148.964 141.954L148.999 141.404L150.057 140.922Z" fill="#035236"/>
<path d="M277.986 35.1629L279.667 34.006L280.067 34.1801C280.093 35.7143 280.078 34.7753 279.369 36.2571C279.373 36.2553 279.923 37.8705 279.893 37.9108C278.826 39.3915 275.965 42.7079 275 43.9432L274.292 42.3178C276.018 39.8454 275.841 39.5706 275.833 36.4381L276.87 35.4995L277.986 35.1629Z" fill="#035236"/>
<path d="M82.8949 310.015C84.1528 312.926 85.0926 315.236 87.1021 317.738L85.3919 319.708C83.7122 317.088 81.7852 314.566 79.9298 312.061C81.6348 311.384 81.7825 311.392 82.8949 310.015Z" fill="#035236"/>
<path d="M380.649 192.569C381.573 194.671 382.285 197.043 382.817 199.278C380.219 200.052 381.637 200.864 379.628 201.992C379.224 199.205 378.791 196.421 378.335 193.642C379.251 193.228 379.842 193.248 380.649 192.569Z" fill="#035236"/>
<path d="M356.78 255.255L357.926 254.29C360.177 257.135 362.695 261.342 363.63 264.853C363.174 264.987 363.49 264.92 362.665 264.88L362.231 263.611C361.179 263.931 361.669 263.731 360.799 264.759C359.464 261.16 358.443 258.71 356.78 255.255Z" fill="#035236"/>
<path d="M382.262 268.619C380.936 269.251 380.694 270.192 379.198 270.489C377.23 268.742 378.497 262.179 382.342 263C382.251 264.257 381.829 267.66 382.262 268.619Z" fill="#035236"/>
<path d="M199.666 189.958L199.452 190.485C198.558 192.637 198.517 196.979 197.163 197.791C193.545 195.913 196.123 190.817 198.068 188.683C198.977 189.246 199.078 189.167 199.666 189.958Z" fill="#035236"/>
<path d="M225.454 284.099C224.967 282.028 225.243 276.463 227.214 275.337C228.929 276.732 228.089 278.705 228.745 280.996L228.918 281.293L227.938 281.381L227.617 282.426C227.478 282.923 227.271 283.527 227.218 284.018L226.701 283.685L225.454 284.099Z" fill="#035236"/>
<path d="M290.252 24.874C292.084 24.7944 293.124 24.4231 294.119 26.1066L293.795 27.0083C292.661 28.1007 292.073 28.1056 290.482 28.5357L284.469 27.0452L290.252 24.874Z" fill="#035236"/>
<path d="M285.431 31.8016C288.763 33.1911 291.405 34.1199 291.39 38.0726C286.388 39.0908 286.554 35.5184 285.431 31.8016Z" fill="#035236"/>
<path d="M294.327 168.3C295.371 168.104 295.816 167.992 296.883 167.968L297.471 168.415C296.046 171.76 294.04 176.583 289.883 176.725L289.415 176.255C292.868 173.879 293.373 173.267 294.233 168.816L294.327 168.3Z" fill="#035236"/>
<path d="M271.416 26.9672C273.157 27.0139 276.146 27.0991 277.24 28.651C276.489 29.6024 276.52 29.3348 275.068 29.7498C273.078 30.7555 272.743 31.091 270.665 30.7224C269.746 29.979 270.002 30.443 269.829 29.3077C270.371 27.9849 270.307 27.98 271.416 26.9672Z" fill="#035236"/>
<path d="M107.376 24.5607C110.494 21.4648 113.501 20.6468 117.672 20.4501L118.244 21.5519L117.301 21.8791C113.62 22.2285 112.831 23.0352 110.077 25.6577C108.66 25.3848 108.541 25.4647 107.376 24.5607Z" fill="#035236"/>
<path d="M98.0959 262.893C98.8872 261.752 98.9403 261.648 100.148 261.44C100.693 264.813 101.198 272.826 100.015 275.899L99.8198 275.564L100.141 275.704L99.8552 275.727C98.9629 271.059 99.9796 267.403 98.0959 262.893Z" fill="#035236"/>
<path d="M316.194 249.966C316.97 252.662 318.987 252.285 321.117 254.333L321.298 255.008C318.199 256.79 315.606 255.005 314.057 252.257C315.417 251.666 315.53 251.236 316.194 249.966Z" fill="#035236"/>
<path d="M287.579 29.3292C290.587 29.5049 295.567 30.062 295.028 34.0962C292.05 34.328 288.514 32.0693 287.579 29.3292Z" fill="#035236"/>
<path d="M275.114 35.4306C273.64 34.6084 272.622 34.3333 272.984 32.5114C274.695 30.8464 277.895 30.8076 280.244 30.6022C279.396 31.8849 278.514 32.9076 277.541 34.0818C276.776 34.5217 275.901 35.0653 275.114 35.4306Z" fill="#035236"/>
<path d="M240.189 152.744C237.618 154.333 232.469 154.569 229.593 153.871C230.754 152.476 236.193 151.853 238.195 151.277L238.568 151.167C239.944 151.935 239.439 151.413 240.189 152.744Z" fill="#035236"/>
<path d="M60.6725 267.028C61.9873 267.977 62.0917 268.437 62.8904 269.921C62.2515 271.644 60.729 276.267 59.45 277.291C58.8717 275.69 60.2834 269.17 60.6725 267.028Z" fill="#035236"/>
<path d="M224.575 92.4727C226.652 90.1536 227.923 87.6356 229.284 84.874C230.535 85.8062 230.516 85.7248 231.055 87.1674C229.751 89.0744 227.915 92.0003 226.245 93.4286L224.575 92.4727Z" fill="#035236"/>
<path d="M97.1927 34.2744C94.7372 34.7494 91.1305 35.4863 88.7343 34.6318C89.726 33.5295 96.3242 32.4337 98.7959 31.2678L99.0217 32.1107C98.2565 33.2668 98.1434 33.3433 97.1927 34.2744Z" fill="#035236"/>
<path d="M87.0057 84.9562C89.6315 87.5455 92.0923 90.2659 95.6722 91.0689C97.439 91.4654 97.275 91.3455 97.419 92.185C94.7645 94.0792 87.8666 88.0054 85.8771 86.087L87.0057 84.9562Z" fill="#035236"/>
<path d="M287.131 20.0942C287.994 20.3132 288.1 20.5217 288.891 21.0736C289.351 22.1219 289.291 21.5723 288.925 22.7887C287.545 24.2697 286.69 24.4145 284.797 25.1284C284.447 25.1869 283.832 25.1737 283.452 25.1808L283.158 24.6075C283.742 22.7344 285.627 21.2364 287.131 20.0942Z" fill="#035236"/>
<path d="M274.307 18.1115C277.036 18.6203 279.173 21.5263 278.887 24.1431L278.333 24.2973C276.444 22.2813 274.853 22.3258 273.398 20.3253C273.255 18.9773 273.191 19.4968 274.307 18.1115Z" fill="#035236"/>
<path d="M271.536 21.7546C273.911 22.5538 274.816 23.2425 276.455 25.1385L276.327 25.6942L275.475 25.4386C273.606 25.1005 269.968 25.5457 269.199 23.7612C269.618 22.6601 270.469 22.3736 271.536 21.7546Z" fill="#035236"/>
<path d="M370.264 261.974C370.852 263.121 370.856 263.681 371.044 264.937C368.982 266.778 367.015 268.346 365.545 270.709L364.542 269.051L370.264 261.974Z" fill="#035236"/>
<path d="M282.234 31.9946C285.238 34.0045 285.461 36.0473 283.689 38.9117C282.698 38.7447 282.736 38.6889 281.884 38.1194C280.824 36.1513 281.673 34.1606 282.234 31.9946Z" fill="#035236"/>
<path d="M336.945 254.679C336.76 249.009 338.853 246.716 344.416 245.717L344.119 247.297C342.177 246.556 339.987 247.408 339.06 249.268C338.129 251.128 338.762 253.389 340.519 254.498C339.501 254.857 339.972 254.598 339.226 255.53L338.687 255.588L338.016 253.614L337.473 253.573L336.945 254.679Z" fill="#035236"/>
<path d="M193.722 215.13C192.304 211.065 189.408 210.509 188.238 208.183L189.619 208.408C191.886 209.784 193.986 210.827 195.667 212.857C195.075 213.892 194.627 214.75 193.876 215.688L193.722 215.13Z" fill="#035236"/>
<path d="M338.943 274.871C339.599 274.351 340.206 274.06 340.937 273.65C342.211 276.447 344.495 278.32 347.153 279.787L345.574 280.442C342.856 278.606 341.235 277.148 338.943 274.871Z" fill="#035236"/>
<path d="M346.147 137.439C347.179 137.779 347.161 137.702 347.85 138.522C346.501 142.347 345.442 144.522 343.365 147.965C343.613 144.906 345.159 140.465 346.147 137.439Z" fill="#035236"/>
<path d="M185.615 252.524C189.697 251.504 193.782 254.532 195.769 257.886C196.662 258.114 185.185 252.233 185.615 252.524Z" fill="#035236"/>
<path d="M9.98584 189.138C12.4096 190.126 12.7576 191.692 13.9487 194.572C14.5926 196.167 15.2191 197.77 15.8275 199.38L14.4927 198.949C13.225 195.687 11.5117 192.312 9.98584 189.138Z" fill="#035236"/>
<path d="M214.639 62.8008C219.23 62.9259 220.014 63.6911 220.203 68.2297C218.917 67.4056 215.694 64.0263 214.639 62.8008Z" fill="#035236"/>
<path d="M389.387 155.267L392.029 154.348C392.67 156.961 393.266 159.453 394.05 162.028L393.714 161.978C392.014 159.625 390.993 157.316 389.387 155.267Z" fill="#035236"/>
<path d="M27.4504 170.38L33.0681 172.618C32.7074 173.51 32.7779 174.203 32.3832 174.838C30.2093 173.315 29.2187 172.906 26.6456 172.293C26.8741 171.22 26.8168 171.258 27.4504 170.38Z" fill="#035236"/>
<path d="M43.0416 205.983C48.0374 204.046 50.9912 203.532 56.2531 203.487C55.1822 203.704 54.2839 203.761 53.4376 204.419C50.6693 204.944 46.3445 205.62 43.8559 206.609L43.0416 205.983Z" fill="#035236"/>
<path d="M367.207 275.723C368.202 273.451 369.695 270.647 370.822 268.38L371.278 270.211L368.621 277.077L367.207 275.723Z" fill="#035236"/>
<path d="M195.437 57.9037C196.952 57.8042 198.238 57.6455 199.459 58.7232C198.875 59.6969 198.415 59.4869 196.888 59.8774C195.395 60.2872 194.51 60.8266 193.318 60.3829C193.594 59.2404 194.498 58.7077 195.437 57.9037Z" fill="#035236"/>
<path d="M274.228 103.671C276.052 105.828 277.025 107.236 278.589 109.61L272.482 106.54C273.308 105.546 273.636 104.802 274.228 103.671Z" fill="#035236"/>
<path d="M15.6997 202.395C16.0838 201.095 15.7001 201.481 16.5659 200.843L17.6285 201.248C16.7197 204.253 16.4728 206.044 16.0133 209.186L14.4493 208.077C15.4754 205.739 15.5033 204.874 15.6997 202.395Z" fill="#035236"/>
<path d="M92.5491 366.898C95.2379 366.235 97.8347 365.782 100.559 365.285C100.643 366.502 101.052 367.358 99.9536 368.089C97.7088 367.539 94.8828 367.222 92.5491 366.898Z" fill="#035236"/>
<path d="M161.342 198.001C162.195 196.736 162.142 196.776 163.374 195.889C165.064 198.391 165.545 199.584 166.598 202.461C165.041 201.084 162.978 199.152 161.342 198.001Z" fill="#035236"/>
<path d="M240.66 130.589C241.78 131.142 241.919 131.117 242.737 132.096C241.225 134.891 241.078 136.779 238.949 139.647C239.812 136.141 240.2 134.192 240.66 130.589Z" fill="#035236"/>
<path d="M350.979 251.255L352.826 251.659C352.291 254.452 352.133 256.187 351.062 258.847L349.599 257.625C351.198 254.872 351.398 254.385 350.979 251.255Z" fill="#035236"/>
<path d="M218.182 141.801C217.41 143.65 217.195 143.985 215.988 145.594C213.048 146.398 211.08 146.577 208.076 146.762C212.309 145.519 214.771 144.592 218.182 141.801Z" fill="#035236"/>
<path d="M120.363 28.4233C121.278 29.339 121.225 29.2688 121.706 30.4732C121.013 31.9844 120.639 33.1243 119.162 33.813L118.795 33.1892C118.804 31.298 119.549 30.1551 120.363 28.4233Z" fill="#035236"/>
<path d="M64.8634 137.11C67.1447 139.053 68.4603 140.547 70.1223 143.109C68.2876 141.992 66.4451 140.889 64.5943 139.799C64.4175 138.568 64.598 138.365 64.8634 137.11Z" fill="#035236"/>
<path d="M172.557 295.816L173.599 295.982L174.093 297.033C173.452 298.365 172.687 299.895 171.4 300.605L170.991 300.244C170.967 298.596 171.805 297.343 172.557 295.816Z" fill="#035236"/>
<path d="M383.586 263.213C383.936 265.332 383.555 266.387 383.725 267.933L382.854 268.712L382.262 268.619C381.829 267.66 382.251 264.257 382.342 263L383.586 263.213Z" fill="#035236"/>
<path d="M334.657 229.267C335.769 226.305 336.791 224.03 338.63 221.456C338.766 221.968 339.109 223.15 339.165 223.613C337.548 225.849 336.519 227.249 334.657 229.267Z" fill="#035236"/>
<path d="M191.226 12.8925C189.867 15.1896 190.589 13.5457 190.662 15.8481L185.03 17.2549C187.431 14.9092 188.343 14.3279 191.226 12.8925Z" fill="#035236"/>
<path d="M200.643 286.953L201.875 286.924C200.164 288.801 199.01 290.021 197.129 291.72L196.745 290.676C197.163 290.136 199.979 287.578 200.643 286.953Z" fill="#035236"/>
<path d="M127.273 16.5686C127.35 15.1038 127.218 13.1854 128.162 12.2039C128.926 12.9378 128.96 15.6334 128.981 16.6414C127.834 16.967 128.385 16.9912 127.273 16.5686Z" fill="#035236"/>
<path d="M346.429 171.374L347.594 170.914C348.529 171.598 348.389 172.609 348.627 174.066L349.034 174.907L348.683 175.279C347.164 174.451 346.844 172.919 346.429 171.374Z" fill="#035236"/>
<path d="M190.949 109.943C192.331 111.261 192.96 111.866 194.11 113.377L193.658 114.449C192.188 112.599 191.092 111.655 189.155 110.321L190.949 109.943Z" fill="#035236"/>
<path d="M317.984 248.253C319.504 249.002 319.911 248.886 320.702 250.083L320.359 250.644C319.029 250.872 318.26 250.9 316.989 250.357L317.984 248.253Z" fill="#035236"/>
<path d="M77.4973 49.2292C78.7066 50.2067 79.9592 51.3692 80.2683 52.9185C78.9207 53.0259 77.5983 50.8773 76.7611 49.8154L77.4973 49.2292Z" fill="#035236"/>
<path d="M211.831 136.657C212.977 139.122 213.474 140.303 214.266 142.889C212.95 141.288 212.095 140.213 210.93 138.456L211.831 136.657Z" fill="#035236"/>
<path d="M270.349 85.8179C270.82 86.0418 271.336 86.3301 271.819 86.4647L269.542 88.6288C269.161 88.7197 267.91 88.9877 267.631 89.1249C268.494 88.3016 269.591 86.7949 270.349 85.8179Z" fill="#035236"/>
<path d="M43.8558 206.609C42.2982 207.156 40.5311 207.637 38.9343 208.11L38.3568 207.899L38.1917 208.255C38.0338 208.24 37.8762 208.225 37.7186 208.21L38.3052 207.815L38.5057 208.089L38.6245 207.646C39.8198 206.969 41.6955 206.43 43.0416 205.983L43.8558 206.609Z" fill="#035236"/>
<path d="M107.057 102.824C108.763 103.179 109.921 103.192 111.068 104.469C110.224 104.486 107.241 103.538 105.829 103.279L107.057 102.824Z" fill="#035236"/>
<path d="M228.745 280.996L229.97 280.048L230.739 281.278L230.901 283.222L228.918 281.293L228.745 280.996Z" fill="#035236"/>
<path d="M105.979 114.039L108.715 113.745L108.027 114.947C107.086 114.911 106.216 114.772 105.286 114.645L105.979 114.039Z" fill="#035236"/>
<path d="M354.571 304.11C354.964 303.097 354.847 302.813 355.57 302.443C355.846 303.806 355.665 304.16 355.34 305.491C355.201 304.8 355.035 304.763 354.571 304.11Z" fill="#035236"/>
<path d="M277.541 34.0818L277.986 35.1629L276.87 35.4995L275.114 35.4305C275.901 35.0653 276.776 34.5217 277.541 34.0818Z" fill="#035236"/>
</svg>
